<mxfile host="Electron" modified="2023-11-18T18:38:42.125Z" agent="Mozilla/5.0 (Windows NT 10.0; Win64; x64) AppleWebKit/537.36 (KHTML, like Gecko) draw.io/22.1.2 Chrome/114.0.5735.289 Electron/25.9.4 Safari/537.36" etag="HibVvlKZhhZv4BUCw-hj" version="22.1.2" type="device">
  <diagram name="Page-1" id="cgDsWB1rKClHpi1VydO6">
    <mxGraphModel dx="5630" dy="4047" grid="1" gridSize="10" guides="1" tooltips="1" connect="1" arrows="1" fold="1" page="1" pageScale="1" pageWidth="850" pageHeight="1100" math="0" shadow="0">
      <root>
        <mxCell id="0" />
        <mxCell id="1" parent="0" />
        <mxCell id="3odqVGsFfWHq_DNa3oB1-1" value="&lt;font size=&quot;1&quot; style=&quot;&quot;&gt;&lt;b style=&quot;font-size: 25px;&quot;&gt;CLK_GEN&lt;/b&gt;&lt;/font&gt;" style="rounded=0;whiteSpace=wrap;html=1;strokeWidth=4;" parent="1" vertex="1">
          <mxGeometry x="-510" y="380" width="320" height="260" as="geometry" />
        </mxCell>
        <mxCell id="3odqVGsFfWHq_DNa3oB1-2" value="" style="endArrow=block;html=1;strokeWidth=2;endFill=1;rounded=0;" parent="1" edge="1">
          <mxGeometry width="50" height="50" relative="1" as="geometry">
            <mxPoint x="-670" y="549.5" as="sourcePoint" />
            <mxPoint x="-510" y="549.5" as="targetPoint" />
          </mxGeometry>
        </mxCell>
        <mxCell id="3odqVGsFfWHq_DNa3oB1-3" value="" style="endArrow=block;html=1;strokeWidth=2;endFill=1;rounded=0;" parent="1" edge="1">
          <mxGeometry width="50" height="50" relative="1" as="geometry">
            <mxPoint x="-670" y="469.5" as="sourcePoint" />
            <mxPoint x="-510" y="469.5" as="targetPoint" />
          </mxGeometry>
        </mxCell>
        <mxCell id="3odqVGsFfWHq_DNa3oB1-4" value="&lt;font size=&quot;1&quot; style=&quot;&quot;&gt;&lt;b style=&quot;font-size: 18px;&quot;&gt;RESET&lt;/b&gt;&lt;/font&gt;" style="text;html=1;strokeColor=none;fillColor=none;align=center;verticalAlign=middle;whiteSpace=wrap;rounded=0;fontSize=16;" parent="1" vertex="1">
          <mxGeometry x="-640" y="439.5" width="70" height="30" as="geometry" />
        </mxCell>
        <mxCell id="3odqVGsFfWHq_DNa3oB1-5" value="&lt;b style=&quot;border-color: var(--border-color); font-size: 18px;&quot;&gt;CLK_100MHZ_I&lt;/b&gt;" style="text;html=1;strokeColor=none;fillColor=none;align=center;verticalAlign=middle;whiteSpace=wrap;rounded=0;fontSize=16;" parent="1" vertex="1">
          <mxGeometry x="-640" y="509.5" width="70" height="30" as="geometry" />
        </mxCell>
        <mxCell id="3odqVGsFfWHq_DNa3oB1-6" value="" style="triangle;whiteSpace=wrap;html=1;strokeWidth=4;" parent="1" vertex="1">
          <mxGeometry x="-510" y="539.5" width="20" height="25" as="geometry" />
        </mxCell>
        <mxCell id="3odqVGsFfWHq_DNa3oB1-11" value="" style="endArrow=block;html=1;strokeWidth=2;endFill=1;rounded=0;" parent="1" edge="1">
          <mxGeometry width="50" height="50" relative="1" as="geometry">
            <mxPoint x="-192" y="430" as="sourcePoint" />
            <mxPoint x="-32" y="430" as="targetPoint" />
          </mxGeometry>
        </mxCell>
        <mxCell id="3odqVGsFfWHq_DNa3oB1-12" value="&lt;b style=&quot;border-color: var(--border-color); font-size: 18px;&quot;&gt;CLK_100MHZ_O&lt;/b&gt;" style="text;html=1;strokeColor=none;fillColor=none;align=center;verticalAlign=middle;whiteSpace=wrap;rounded=0;fontSize=16;" parent="1" vertex="1">
          <mxGeometry x="-149" y="400" width="70" height="30" as="geometry" />
        </mxCell>
        <mxCell id="3odqVGsFfWHq_DNa3oB1-13" value="" style="endArrow=block;html=1;strokeWidth=2;endFill=1;rounded=0;" parent="1" edge="1">
          <mxGeometry width="50" height="50" relative="1" as="geometry">
            <mxPoint x="-190" y="590" as="sourcePoint" />
            <mxPoint x="-30" y="590" as="targetPoint" />
          </mxGeometry>
        </mxCell>
        <mxCell id="3odqVGsFfWHq_DNa3oB1-14" value="&lt;b style=&quot;border-color: var(--border-color); font-size: 18px;&quot;&gt;LOCKED_O&lt;/b&gt;" style="text;html=1;strokeColor=none;fillColor=none;align=center;verticalAlign=middle;whiteSpace=wrap;rounded=0;fontSize=16;" parent="1" vertex="1">
          <mxGeometry x="-141" y="559" width="70" height="30" as="geometry" />
        </mxCell>
        <mxCell id="3odqVGsFfWHq_DNa3oB1-21" value="" style="endArrow=block;html=1;strokeWidth=2;endFill=1;rounded=0;" parent="1" edge="1">
          <mxGeometry width="50" height="50" relative="1" as="geometry">
            <mxPoint x="-190" y="510" as="sourcePoint" />
            <mxPoint x="-30" y="510" as="targetPoint" />
          </mxGeometry>
        </mxCell>
        <mxCell id="3odqVGsFfWHq_DNa3oB1-22" value="&lt;b style=&quot;border-color: var(--border-color); font-size: 18px;&quot;&gt;CLK_200MHZ_O&lt;/b&gt;" style="text;html=1;strokeColor=none;fillColor=none;align=center;verticalAlign=middle;whiteSpace=wrap;rounded=0;fontSize=16;" parent="1" vertex="1">
          <mxGeometry x="-147" y="480" width="70" height="30" as="geometry" />
        </mxCell>
        <mxCell id="EPZueAxWYd-J33KAulZX-1" value="&lt;font size=&quot;1&quot; style=&quot;&quot;&gt;&lt;b style=&quot;font-size: 25px;&quot;&gt;UC&lt;/b&gt;&lt;/font&gt;" style="rounded=0;whiteSpace=wrap;html=1;strokeWidth=4;" vertex="1" parent="1">
          <mxGeometry x="1384" y="-773" width="320" height="550" as="geometry" />
        </mxCell>
        <mxCell id="EPZueAxWYd-J33KAulZX-2" value="" style="endArrow=block;html=1;strokeWidth=2;endFill=1;rounded=0;" edge="1" parent="1">
          <mxGeometry width="50" height="50" relative="1" as="geometry">
            <mxPoint x="1224" y="-643" as="sourcePoint" />
            <mxPoint x="1384" y="-643" as="targetPoint" />
          </mxGeometry>
        </mxCell>
        <mxCell id="EPZueAxWYd-J33KAulZX-3" value="" style="endArrow=block;html=1;strokeWidth=2;endFill=1;rounded=0;" edge="1" parent="1">
          <mxGeometry width="50" height="50" relative="1" as="geometry">
            <mxPoint x="1224" y="-723" as="sourcePoint" />
            <mxPoint x="1384" y="-723" as="targetPoint" />
          </mxGeometry>
        </mxCell>
        <mxCell id="EPZueAxWYd-J33KAulZX-4" value="&lt;font size=&quot;1&quot; style=&quot;&quot;&gt;&lt;b style=&quot;font-size: 18px;&quot;&gt;CLK&lt;/b&gt;&lt;/font&gt;" style="text;html=1;strokeColor=none;fillColor=none;align=center;verticalAlign=middle;whiteSpace=wrap;rounded=0;fontSize=16;" vertex="1" parent="1">
          <mxGeometry x="1254" y="-753" width="70" height="30" as="geometry" />
        </mxCell>
        <mxCell id="EPZueAxWYd-J33KAulZX-5" value="&lt;b style=&quot;border-color: var(--border-color); font-size: 18px;&quot;&gt;SEMNAL1&lt;/b&gt;" style="text;html=1;strokeColor=none;fillColor=none;align=center;verticalAlign=middle;whiteSpace=wrap;rounded=0;fontSize=16;" vertex="1" parent="1">
          <mxGeometry x="1254" y="-683" width="70" height="30" as="geometry" />
        </mxCell>
        <mxCell id="EPZueAxWYd-J33KAulZX-6" value="" style="triangle;whiteSpace=wrap;html=1;strokeWidth=4;" vertex="1" parent="1">
          <mxGeometry x="1384" y="-733" width="20" height="25" as="geometry" />
        </mxCell>
        <mxCell id="EPZueAxWYd-J33KAulZX-7" value="" style="endArrow=block;html=1;strokeWidth=6;endFill=1;rounded=0;" edge="1" parent="1">
          <mxGeometry width="50" height="50" relative="1" as="geometry">
            <mxPoint x="1224" y="-321" as="sourcePoint" />
            <mxPoint x="1384" y="-321" as="targetPoint" />
          </mxGeometry>
        </mxCell>
        <mxCell id="EPZueAxWYd-J33KAulZX-8" value="&lt;font size=&quot;1&quot; style=&quot;&quot;&gt;&lt;b style=&quot;font-size: 18px;&quot;&gt;DATA&lt;/b&gt;&lt;/font&gt;" style="text;html=1;strokeColor=none;fillColor=none;align=center;verticalAlign=middle;whiteSpace=wrap;rounded=0;fontSize=16;" vertex="1" parent="1">
          <mxGeometry x="1254" y="-353" width="70" height="30" as="geometry" />
        </mxCell>
        <mxCell id="EPZueAxWYd-J33KAulZX-9" value="&lt;b style=&quot;&quot;&gt;&lt;sub style=&quot;&quot;&gt;&lt;font style=&quot;font-size: 15px;&quot;&gt;12&lt;/font&gt;&lt;/sub&gt;&lt;/b&gt;" style="text;html=1;strokeColor=none;fillColor=none;align=center;verticalAlign=middle;whiteSpace=wrap;rounded=0;fontSize=16;" vertex="1" parent="1">
          <mxGeometry x="1342" y="-353" width="20" height="22" as="geometry" />
        </mxCell>
        <mxCell id="EPZueAxWYd-J33KAulZX-10" value="" style="endArrow=none;html=1;rounded=0;strokeWidth=3;" edge="1" parent="1">
          <mxGeometry width="50" height="50" relative="1" as="geometry">
            <mxPoint x="1334" y="-309" as="sourcePoint" />
            <mxPoint x="1344" y="-329" as="targetPoint" />
          </mxGeometry>
        </mxCell>
        <mxCell id="EPZueAxWYd-J33KAulZX-11" value="" style="endArrow=block;html=1;strokeWidth=2;endFill=1;rounded=0;" edge="1" parent="1">
          <mxGeometry width="50" height="50" relative="1" as="geometry">
            <mxPoint x="1704" y="-713" as="sourcePoint" />
            <mxPoint x="1864" y="-713" as="targetPoint" />
          </mxGeometry>
        </mxCell>
        <mxCell id="EPZueAxWYd-J33KAulZX-12" value="&lt;b style=&quot;border-color: var(--border-color); font-size: 18px;&quot;&gt;SEMNAL_CNTRL1&lt;/b&gt;" style="text;html=1;strokeColor=none;fillColor=none;align=center;verticalAlign=middle;whiteSpace=wrap;rounded=0;fontSize=16;" vertex="1" parent="1">
          <mxGeometry x="1754" y="-743" width="70" height="30" as="geometry" />
        </mxCell>
        <mxCell id="EPZueAxWYd-J33KAulZX-13" value="" style="endArrow=block;html=1;strokeWidth=2;endFill=1;rounded=0;" edge="1" parent="1">
          <mxGeometry width="50" height="50" relative="1" as="geometry">
            <mxPoint x="1704" y="-313" as="sourcePoint" />
            <mxPoint x="1864" y="-313" as="targetPoint" />
          </mxGeometry>
        </mxCell>
        <mxCell id="EPZueAxWYd-J33KAulZX-14" value="&lt;b style=&quot;border-color: var(--border-color); font-size: 18px;&quot;&gt;SEMNAL_CNTRLN&lt;/b&gt;" style="text;html=1;strokeColor=none;fillColor=none;align=center;verticalAlign=middle;whiteSpace=wrap;rounded=0;fontSize=16;" vertex="1" parent="1">
          <mxGeometry x="1754" y="-343" width="70" height="30" as="geometry" />
        </mxCell>
        <mxCell id="EPZueAxWYd-J33KAulZX-15" value="" style="shape=ellipse;fillColor=#000000;strokeColor=none;html=1;sketch=0;" vertex="1" parent="1">
          <mxGeometry x="1284" y="-603" width="10" height="10" as="geometry" />
        </mxCell>
        <mxCell id="EPZueAxWYd-J33KAulZX-16" value="" style="shape=ellipse;fillColor=#000000;strokeColor=none;html=1;sketch=0;" vertex="1" parent="1">
          <mxGeometry x="1284" y="-563" width="10" height="10" as="geometry" />
        </mxCell>
        <mxCell id="EPZueAxWYd-J33KAulZX-17" value="" style="shape=ellipse;fillColor=#000000;strokeColor=none;html=1;sketch=0;" vertex="1" parent="1">
          <mxGeometry x="1284" y="-523" width="10" height="10" as="geometry" />
        </mxCell>
        <mxCell id="EPZueAxWYd-J33KAulZX-18" value="" style="shape=ellipse;fillColor=#000000;strokeColor=none;html=1;sketch=0;" vertex="1" parent="1">
          <mxGeometry x="1284" y="-483" width="10" height="10" as="geometry" />
        </mxCell>
        <mxCell id="EPZueAxWYd-J33KAulZX-19" value="" style="shape=ellipse;fillColor=#000000;strokeColor=none;html=1;sketch=0;" vertex="1" parent="1">
          <mxGeometry x="1284" y="-443" width="10" height="10" as="geometry" />
        </mxCell>
        <mxCell id="EPZueAxWYd-J33KAulZX-20" value="" style="shape=ellipse;fillColor=#000000;strokeColor=none;html=1;sketch=0;" vertex="1" parent="1">
          <mxGeometry x="1284" y="-403" width="10" height="10" as="geometry" />
        </mxCell>
        <mxCell id="EPZueAxWYd-J33KAulZX-21" value="" style="endArrow=block;html=1;strokeWidth=2;endFill=1;rounded=0;" edge="1" parent="1">
          <mxGeometry width="50" height="50" relative="1" as="geometry">
            <mxPoint x="1704" y="-643" as="sourcePoint" />
            <mxPoint x="1864" y="-643" as="targetPoint" />
          </mxGeometry>
        </mxCell>
        <mxCell id="EPZueAxWYd-J33KAulZX-22" value="&lt;b style=&quot;border-color: var(--border-color); font-size: 18px;&quot;&gt;SEMNAL_CNTRL2&lt;/b&gt;" style="text;html=1;strokeColor=none;fillColor=none;align=center;verticalAlign=middle;whiteSpace=wrap;rounded=0;fontSize=16;" vertex="1" parent="1">
          <mxGeometry x="1754" y="-673" width="70" height="30" as="geometry" />
        </mxCell>
        <mxCell id="EPZueAxWYd-J33KAulZX-23" value="" style="shape=ellipse;fillColor=#000000;strokeColor=none;html=1;sketch=0;" vertex="1" parent="1">
          <mxGeometry x="1804" y="-603" width="10" height="10" as="geometry" />
        </mxCell>
        <mxCell id="EPZueAxWYd-J33KAulZX-24" value="" style="shape=ellipse;fillColor=#000000;strokeColor=none;html=1;sketch=0;" vertex="1" parent="1">
          <mxGeometry x="1804" y="-563" width="10" height="10" as="geometry" />
        </mxCell>
        <mxCell id="EPZueAxWYd-J33KAulZX-25" value="" style="shape=ellipse;fillColor=#000000;strokeColor=none;html=1;sketch=0;" vertex="1" parent="1">
          <mxGeometry x="1804" y="-523" width="10" height="10" as="geometry" />
        </mxCell>
        <mxCell id="EPZueAxWYd-J33KAulZX-26" value="" style="shape=ellipse;fillColor=#000000;strokeColor=none;html=1;sketch=0;" vertex="1" parent="1">
          <mxGeometry x="1804" y="-483" width="10" height="10" as="geometry" />
        </mxCell>
        <mxCell id="EPZueAxWYd-J33KAulZX-27" value="" style="shape=ellipse;fillColor=#000000;strokeColor=none;html=1;sketch=0;" vertex="1" parent="1">
          <mxGeometry x="1804" y="-443" width="10" height="10" as="geometry" />
        </mxCell>
        <mxCell id="EPZueAxWYd-J33KAulZX-28" value="" style="shape=ellipse;fillColor=#000000;strokeColor=none;html=1;sketch=0;" vertex="1" parent="1">
          <mxGeometry x="1804" y="-403" width="10" height="10" as="geometry" />
        </mxCell>
        <mxCell id="EPZueAxWYd-J33KAulZX-29" value="&lt;font size=&quot;1&quot; style=&quot;&quot;&gt;&lt;b style=&quot;font-size: 25px;&quot;&gt;UART_TX_CTRL&lt;/b&gt;&lt;/font&gt;" style="rounded=0;whiteSpace=wrap;html=1;strokeWidth=4;" vertex="1" parent="1">
          <mxGeometry x="2230" y="249.5" width="320" height="250" as="geometry" />
        </mxCell>
        <mxCell id="EPZueAxWYd-J33KAulZX-30" value="" style="endArrow=block;html=1;strokeWidth=2;endFill=1;rounded=0;" edge="1" parent="1">
          <mxGeometry width="50" height="50" relative="1" as="geometry">
            <mxPoint x="2070" y="379.5" as="sourcePoint" />
            <mxPoint x="2230" y="379.5" as="targetPoint" />
          </mxGeometry>
        </mxCell>
        <mxCell id="EPZueAxWYd-J33KAulZX-31" value="" style="endArrow=block;html=1;strokeWidth=2;endFill=1;rounded=0;" edge="1" parent="1">
          <mxGeometry width="50" height="50" relative="1" as="geometry">
            <mxPoint x="2070" y="299.5" as="sourcePoint" />
            <mxPoint x="2230" y="299.5" as="targetPoint" />
          </mxGeometry>
        </mxCell>
        <mxCell id="EPZueAxWYd-J33KAulZX-32" value="&lt;font size=&quot;1&quot; style=&quot;&quot;&gt;&lt;b style=&quot;font-size: 18px;&quot;&gt;CLK&lt;/b&gt;&lt;/font&gt;" style="text;html=1;strokeColor=none;fillColor=none;align=center;verticalAlign=middle;whiteSpace=wrap;rounded=0;fontSize=16;" vertex="1" parent="1">
          <mxGeometry x="2100" y="269.5" width="70" height="30" as="geometry" />
        </mxCell>
        <mxCell id="EPZueAxWYd-J33KAulZX-33" value="&lt;font size=&quot;1&quot; style=&quot;&quot;&gt;&lt;b style=&quot;font-size: 18px;&quot;&gt;SEND&lt;/b&gt;&lt;/font&gt;" style="text;html=1;strokeColor=none;fillColor=none;align=center;verticalAlign=middle;whiteSpace=wrap;rounded=0;fontSize=16;" vertex="1" parent="1">
          <mxGeometry x="2100" y="339.5" width="70" height="30" as="geometry" />
        </mxCell>
        <mxCell id="EPZueAxWYd-J33KAulZX-34" value="" style="triangle;whiteSpace=wrap;html=1;strokeWidth=4;" vertex="1" parent="1">
          <mxGeometry x="2230" y="289.5" width="20" height="25" as="geometry" />
        </mxCell>
        <mxCell id="EPZueAxWYd-J33KAulZX-35" value="" style="endArrow=block;html=1;strokeWidth=6;endFill=1;rounded=0;" edge="1" parent="1">
          <mxGeometry width="50" height="50" relative="1" as="geometry">
            <mxPoint x="2070" y="458.5" as="sourcePoint" />
            <mxPoint x="2230" y="458.5" as="targetPoint" />
          </mxGeometry>
        </mxCell>
        <mxCell id="EPZueAxWYd-J33KAulZX-36" value="&lt;font size=&quot;1&quot; style=&quot;&quot;&gt;&lt;b style=&quot;font-size: 18px;&quot;&gt;DATA&lt;/b&gt;&lt;/font&gt;" style="text;html=1;strokeColor=none;fillColor=none;align=center;verticalAlign=middle;whiteSpace=wrap;rounded=0;fontSize=16;" vertex="1" parent="1">
          <mxGeometry x="2100" y="426.5" width="70" height="30" as="geometry" />
        </mxCell>
        <mxCell id="EPZueAxWYd-J33KAulZX-37" value="&lt;b style=&quot;&quot;&gt;&lt;sub style=&quot;&quot;&gt;&lt;font style=&quot;font-size: 15px;&quot;&gt;12&lt;/font&gt;&lt;/sub&gt;&lt;/b&gt;" style="text;html=1;strokeColor=none;fillColor=none;align=center;verticalAlign=middle;whiteSpace=wrap;rounded=0;fontSize=16;" vertex="1" parent="1">
          <mxGeometry x="2188" y="426.5" width="20" height="22" as="geometry" />
        </mxCell>
        <mxCell id="EPZueAxWYd-J33KAulZX-38" value="" style="endArrow=none;html=1;rounded=0;strokeWidth=3;" edge="1" parent="1">
          <mxGeometry width="50" height="50" relative="1" as="geometry">
            <mxPoint x="2180" y="470.5" as="sourcePoint" />
            <mxPoint x="2190" y="450.5" as="targetPoint" />
          </mxGeometry>
        </mxCell>
        <mxCell id="EPZueAxWYd-J33KAulZX-39" value="" style="endArrow=block;html=1;strokeWidth=2;endFill=1;rounded=0;" edge="1" parent="1">
          <mxGeometry width="50" height="50" relative="1" as="geometry">
            <mxPoint x="2550" y="339.5" as="sourcePoint" />
            <mxPoint x="2710" y="339.5" as="targetPoint" />
          </mxGeometry>
        </mxCell>
        <mxCell id="EPZueAxWYd-J33KAulZX-40" value="&lt;font size=&quot;1&quot; style=&quot;&quot;&gt;&lt;b style=&quot;font-size: 18px;&quot;&gt;UART_TX&lt;/b&gt;&lt;/font&gt;" style="text;html=1;strokeColor=none;fillColor=none;align=center;verticalAlign=middle;whiteSpace=wrap;rounded=0;fontSize=16;" vertex="1" parent="1">
          <mxGeometry x="2600" y="309.5" width="70" height="30" as="geometry" />
        </mxCell>
        <mxCell id="EPZueAxWYd-J33KAulZX-41" value="" style="endArrow=block;html=1;strokeWidth=2;endFill=1;rounded=0;" edge="1" parent="1">
          <mxGeometry width="50" height="50" relative="1" as="geometry">
            <mxPoint x="2550" y="419.5" as="sourcePoint" />
            <mxPoint x="2710" y="419.5" as="targetPoint" />
          </mxGeometry>
        </mxCell>
        <mxCell id="EPZueAxWYd-J33KAulZX-42" value="&lt;font size=&quot;1&quot; style=&quot;&quot;&gt;&lt;b style=&quot;font-size: 18px;&quot;&gt;READY&lt;/b&gt;&lt;/font&gt;" style="text;html=1;strokeColor=none;fillColor=none;align=center;verticalAlign=middle;whiteSpace=wrap;rounded=0;fontSize=16;" vertex="1" parent="1">
          <mxGeometry x="2600" y="389.5" width="70" height="30" as="geometry" />
        </mxCell>
        <mxCell id="EPZueAxWYd-J33KAulZX-57" value="&lt;font size=&quot;1&quot; style=&quot;&quot;&gt;&lt;b style=&quot;font-size: 25px;&quot;&gt;UART_RX_CTRL&lt;/b&gt;&lt;/font&gt;" style="rounded=0;whiteSpace=wrap;html=1;strokeWidth=4;" vertex="1" parent="1">
          <mxGeometry x="2220" y="-130" width="320" height="250" as="geometry" />
        </mxCell>
        <mxCell id="EPZueAxWYd-J33KAulZX-58" value="" style="endArrow=none;html=1;strokeWidth=2;endFill=0;rounded=0;startArrow=blockThin;startFill=1;" edge="1" parent="1">
          <mxGeometry width="50" height="50" relative="1" as="geometry">
            <mxPoint x="2540" as="sourcePoint" />
            <mxPoint x="2700" as="targetPoint" />
          </mxGeometry>
        </mxCell>
        <mxCell id="EPZueAxWYd-J33KAulZX-59" value="" style="endArrow=none;html=1;strokeWidth=2;endFill=0;rounded=0;startArrow=blockThin;startFill=1;" edge="1" parent="1">
          <mxGeometry width="50" height="50" relative="1" as="geometry">
            <mxPoint x="2540" y="-80" as="sourcePoint" />
            <mxPoint x="2700" y="-80" as="targetPoint" />
          </mxGeometry>
        </mxCell>
        <mxCell id="EPZueAxWYd-J33KAulZX-60" value="&lt;font size=&quot;1&quot; style=&quot;&quot;&gt;&lt;b style=&quot;font-size: 18px;&quot;&gt;CLK&lt;/b&gt;&lt;/font&gt;" style="text;html=1;strokeColor=none;fillColor=none;align=center;verticalAlign=middle;whiteSpace=wrap;rounded=0;fontSize=16;" vertex="1" parent="1">
          <mxGeometry x="2570" y="-110" width="70" height="30" as="geometry" />
        </mxCell>
        <mxCell id="EPZueAxWYd-J33KAulZX-61" value="&lt;font size=&quot;1&quot; style=&quot;&quot;&gt;&lt;b style=&quot;font-size: 18px;&quot;&gt;RESET&lt;/b&gt;&lt;/font&gt;" style="text;html=1;strokeColor=none;fillColor=none;align=center;verticalAlign=middle;whiteSpace=wrap;rounded=0;fontSize=16;" vertex="1" parent="1">
          <mxGeometry x="2570" y="-40" width="70" height="30" as="geometry" />
        </mxCell>
        <mxCell id="EPZueAxWYd-J33KAulZX-62" value="" style="triangle;whiteSpace=wrap;html=1;strokeWidth=4;direction=west;" vertex="1" parent="1">
          <mxGeometry x="2520" y="-92" width="20" height="25" as="geometry" />
        </mxCell>
        <mxCell id="EPZueAxWYd-J33KAulZX-63" value="" style="endArrow=none;html=1;strokeWidth=6;endFill=0;rounded=0;startArrow=blockThin;startFill=1;" edge="1" parent="1">
          <mxGeometry width="50" height="50" relative="1" as="geometry">
            <mxPoint x="2060" y="-39" as="sourcePoint" />
            <mxPoint x="2220" y="-39" as="targetPoint" />
          </mxGeometry>
        </mxCell>
        <mxCell id="EPZueAxWYd-J33KAulZX-64" value="&lt;font size=&quot;1&quot; style=&quot;&quot;&gt;&lt;b style=&quot;font-size: 18px;&quot;&gt;DATA&lt;/b&gt;&lt;/font&gt;" style="text;html=1;strokeColor=none;fillColor=none;align=center;verticalAlign=middle;whiteSpace=wrap;rounded=0;fontSize=16;" vertex="1" parent="1">
          <mxGeometry x="2134" y="-71" width="70" height="30" as="geometry" />
        </mxCell>
        <mxCell id="EPZueAxWYd-J33KAulZX-65" value="&lt;b style=&quot;&quot;&gt;&lt;sub style=&quot;&quot;&gt;&lt;font style=&quot;font-size: 15px;&quot;&gt;16&lt;/font&gt;&lt;/sub&gt;&lt;/b&gt;" style="text;html=1;strokeColor=none;fillColor=none;align=center;verticalAlign=middle;whiteSpace=wrap;rounded=0;fontSize=16;" vertex="1" parent="1">
          <mxGeometry x="2115" y="-73" width="20" height="22" as="geometry" />
        </mxCell>
        <mxCell id="EPZueAxWYd-J33KAulZX-66" value="" style="endArrow=none;html=1;rounded=0;strokeWidth=3;" edge="1" parent="1">
          <mxGeometry width="50" height="50" relative="1" as="geometry">
            <mxPoint x="2107" y="-29" as="sourcePoint" />
            <mxPoint x="2117" y="-49" as="targetPoint" />
          </mxGeometry>
        </mxCell>
        <mxCell id="EPZueAxWYd-J33KAulZX-67" value="" style="endArrow=none;html=1;strokeWidth=2;endFill=0;rounded=0;startArrow=blockThin;startFill=1;" edge="1" parent="1">
          <mxGeometry width="50" height="50" relative="1" as="geometry">
            <mxPoint x="2060" y="39" as="sourcePoint" />
            <mxPoint x="2220" y="39" as="targetPoint" />
          </mxGeometry>
        </mxCell>
        <mxCell id="EPZueAxWYd-J33KAulZX-68" value="&lt;font size=&quot;1&quot; style=&quot;&quot;&gt;&lt;b style=&quot;font-size: 18px;&quot;&gt;READY&lt;/b&gt;&lt;/font&gt;" style="text;html=1;strokeColor=none;fillColor=none;align=center;verticalAlign=middle;whiteSpace=wrap;rounded=0;fontSize=16;" vertex="1" parent="1">
          <mxGeometry x="2110" y="9" width="70" height="30" as="geometry" />
        </mxCell>
        <mxCell id="EPZueAxWYd-J33KAulZX-69" value="" style="endArrow=none;html=1;strokeWidth=2;endFill=0;rounded=0;startArrow=blockThin;startFill=1;" edge="1" parent="1">
          <mxGeometry width="50" height="50" relative="1" as="geometry">
            <mxPoint x="2540" y="80" as="sourcePoint" />
            <mxPoint x="2700" y="80" as="targetPoint" />
          </mxGeometry>
        </mxCell>
        <mxCell id="EPZueAxWYd-J33KAulZX-70" value="&lt;font size=&quot;1&quot; style=&quot;&quot;&gt;&lt;b style=&quot;font-size: 18px;&quot;&gt;UART_RX&lt;/b&gt;&lt;/font&gt;" style="text;html=1;strokeColor=none;fillColor=none;align=center;verticalAlign=middle;whiteSpace=wrap;rounded=0;fontSize=16;" vertex="1" parent="1">
          <mxGeometry x="2570" y="40" width="70" height="30" as="geometry" />
        </mxCell>
        <mxCell id="EPZueAxWYd-J33KAulZX-72" value="&lt;font size=&quot;1&quot; style=&quot;&quot;&gt;&lt;b style=&quot;font-size: 25px;&quot;&gt;RAM_CNTRL&lt;/b&gt;&lt;/font&gt;" style="rounded=0;whiteSpace=wrap;html=1;strokeWidth=4;" vertex="1" parent="1">
          <mxGeometry x="560" y="888" width="320" height="600" as="geometry" />
        </mxCell>
        <mxCell id="EPZueAxWYd-J33KAulZX-73" value="" style="endArrow=block;html=1;strokeWidth=2;endFill=1;rounded=0;" edge="1" parent="1">
          <mxGeometry width="50" height="50" relative="1" as="geometry">
            <mxPoint x="450" y="1068" as="sourcePoint" />
            <mxPoint x="560" y="1068" as="targetPoint" />
          </mxGeometry>
        </mxCell>
        <mxCell id="EPZueAxWYd-J33KAulZX-74" value="" style="endArrow=block;html=1;strokeWidth=2;endFill=1;rounded=0;" edge="1" parent="1">
          <mxGeometry width="50" height="50" relative="1" as="geometry">
            <mxPoint x="450" y="1008" as="sourcePoint" />
            <mxPoint x="560" y="1008" as="targetPoint" />
          </mxGeometry>
        </mxCell>
        <mxCell id="EPZueAxWYd-J33KAulZX-75" value="&lt;font size=&quot;1&quot; style=&quot;&quot;&gt;&lt;b style=&quot;font-size: 18px;&quot;&gt;CLK_I&lt;/b&gt;&lt;/font&gt;" style="text;html=1;strokeColor=none;fillColor=none;align=center;verticalAlign=middle;whiteSpace=wrap;rounded=0;fontSize=16;" vertex="1" parent="1">
          <mxGeometry x="450" y="978" width="70" height="30" as="geometry" />
        </mxCell>
        <mxCell id="EPZueAxWYd-J33KAulZX-76" value="&lt;font size=&quot;1&quot; style=&quot;&quot;&gt;&lt;b style=&quot;font-size: 18px;&quot;&gt;RST_I&lt;/b&gt;&lt;/font&gt;" style="text;html=1;strokeColor=none;fillColor=none;align=center;verticalAlign=middle;whiteSpace=wrap;rounded=0;fontSize=16;" vertex="1" parent="1">
          <mxGeometry x="450" y="1038" width="70" height="30" as="geometry" />
        </mxCell>
        <mxCell id="EPZueAxWYd-J33KAulZX-77" value="" style="triangle;whiteSpace=wrap;html=1;strokeWidth=4;" vertex="1" parent="1">
          <mxGeometry x="560" y="998" width="20" height="25" as="geometry" />
        </mxCell>
        <mxCell id="EPZueAxWYd-J33KAulZX-78" value="" style="endArrow=block;html=1;strokeWidth=2;endFill=1;rounded=0;" edge="1" parent="1">
          <mxGeometry width="50" height="50" relative="1" as="geometry">
            <mxPoint x="450" y="1127" as="sourcePoint" />
            <mxPoint x="560" y="1127" as="targetPoint" />
          </mxGeometry>
        </mxCell>
        <mxCell id="EPZueAxWYd-J33KAulZX-79" value="&lt;font size=&quot;1&quot; style=&quot;&quot;&gt;&lt;b style=&quot;font-size: 18px;&quot;&gt;RNW_I&lt;/b&gt;&lt;/font&gt;" style="text;html=1;strokeColor=none;fillColor=none;align=center;verticalAlign=middle;whiteSpace=wrap;rounded=0;fontSize=16;" vertex="1" parent="1">
          <mxGeometry x="450" y="1097" width="70" height="30" as="geometry" />
        </mxCell>
        <mxCell id="EPZueAxWYd-J33KAulZX-80" value="" style="endArrow=block;html=1;strokeWidth=6;endFill=1;rounded=0;" edge="1" parent="1">
          <mxGeometry width="50" height="50" relative="1" as="geometry">
            <mxPoint x="400" y="1248" as="sourcePoint" />
            <mxPoint x="560" y="1248" as="targetPoint" />
          </mxGeometry>
        </mxCell>
        <mxCell id="EPZueAxWYd-J33KAulZX-81" value="&lt;font size=&quot;1&quot; style=&quot;&quot;&gt;&lt;b style=&quot;font-size: 18px;&quot;&gt;BE_I&lt;/b&gt;&lt;/font&gt;" style="text;html=1;strokeColor=none;fillColor=none;align=center;verticalAlign=middle;whiteSpace=wrap;rounded=0;fontSize=16;" vertex="1" parent="1">
          <mxGeometry x="420" y="1218" width="70" height="30" as="geometry" />
        </mxCell>
        <mxCell id="EPZueAxWYd-J33KAulZX-82" value="" style="endArrow=block;html=1;strokeWidth=2;endFill=1;rounded=0;" edge="1" parent="1">
          <mxGeometry width="50" height="50" relative="1" as="geometry">
            <mxPoint x="450" y="1185" as="sourcePoint" />
            <mxPoint x="560" y="1185" as="targetPoint" />
          </mxGeometry>
        </mxCell>
        <mxCell id="EPZueAxWYd-J33KAulZX-83" value="&lt;font size=&quot;1&quot; style=&quot;&quot;&gt;&lt;b style=&quot;font-size: 18px;&quot;&gt;CS_I&lt;br&gt;&lt;/b&gt;&lt;/font&gt;" style="text;html=1;strokeColor=none;fillColor=none;align=center;verticalAlign=middle;whiteSpace=wrap;rounded=0;fontSize=16;" vertex="1" parent="1">
          <mxGeometry x="450" y="1156" width="70" height="30" as="geometry" />
        </mxCell>
        <mxCell id="EPZueAxWYd-J33KAulZX-84" value="&lt;b style=&quot;&quot;&gt;&lt;sub style=&quot;&quot;&gt;&lt;font style=&quot;font-size: 15px;&quot;&gt;4&lt;/font&gt;&lt;/sub&gt;&lt;/b&gt;" style="text;html=1;strokeColor=none;fillColor=none;align=center;verticalAlign=middle;whiteSpace=wrap;rounded=0;fontSize=16;" vertex="1" parent="1">
          <mxGeometry x="520" y="1218" width="20" height="22" as="geometry" />
        </mxCell>
        <mxCell id="EPZueAxWYd-J33KAulZX-85" value="" style="endArrow=none;html=1;rounded=0;strokeWidth=3;" edge="1" parent="1">
          <mxGeometry width="50" height="50" relative="1" as="geometry">
            <mxPoint x="510" y="1260" as="sourcePoint" />
            <mxPoint x="520" y="1240" as="targetPoint" />
          </mxGeometry>
        </mxCell>
        <mxCell id="EPZueAxWYd-J33KAulZX-86" value="" style="endArrow=block;html=1;strokeWidth=6;endFill=1;rounded=0;" edge="1" parent="1">
          <mxGeometry width="50" height="50" relative="1" as="geometry">
            <mxPoint x="400" y="1308" as="sourcePoint" />
            <mxPoint x="560" y="1308" as="targetPoint" />
          </mxGeometry>
        </mxCell>
        <mxCell id="EPZueAxWYd-J33KAulZX-87" value="&lt;font size=&quot;1&quot; style=&quot;&quot;&gt;&lt;b style=&quot;font-size: 18px;&quot;&gt;ADDR_I&lt;br&gt;&lt;/b&gt;&lt;/font&gt;" style="text;html=1;strokeColor=none;fillColor=none;align=center;verticalAlign=middle;whiteSpace=wrap;rounded=0;fontSize=16;" vertex="1" parent="1">
          <mxGeometry x="430" y="1276" width="70" height="30" as="geometry" />
        </mxCell>
        <mxCell id="EPZueAxWYd-J33KAulZX-88" value="&lt;span style=&quot;font-size: 15px;&quot;&gt;&lt;b&gt;32&lt;/b&gt;&lt;/span&gt;" style="text;html=1;strokeColor=none;fillColor=none;align=center;verticalAlign=middle;whiteSpace=wrap;rounded=0;fontSize=16;" vertex="1" parent="1">
          <mxGeometry x="520" y="1276" width="20" height="22" as="geometry" />
        </mxCell>
        <mxCell id="EPZueAxWYd-J33KAulZX-89" value="" style="endArrow=none;html=1;rounded=0;strokeWidth=3;" edge="1" parent="1">
          <mxGeometry width="50" height="50" relative="1" as="geometry">
            <mxPoint x="510" y="1320" as="sourcePoint" />
            <mxPoint x="520" y="1300" as="targetPoint" />
          </mxGeometry>
        </mxCell>
        <mxCell id="EPZueAxWYd-J33KAulZX-90" value="" style="endArrow=block;html=1;strokeWidth=6;endFill=1;rounded=0;" edge="1" parent="1">
          <mxGeometry width="50" height="50" relative="1" as="geometry">
            <mxPoint x="400" y="1368" as="sourcePoint" />
            <mxPoint x="560" y="1367" as="targetPoint" />
          </mxGeometry>
        </mxCell>
        <mxCell id="EPZueAxWYd-J33KAulZX-91" value="&lt;font size=&quot;1&quot; style=&quot;&quot;&gt;&lt;b style=&quot;font-size: 18px;&quot;&gt;DATA_I&lt;/b&gt;&lt;/font&gt;" style="text;html=1;strokeColor=none;fillColor=none;align=center;verticalAlign=middle;whiteSpace=wrap;rounded=0;fontSize=16;" vertex="1" parent="1">
          <mxGeometry x="430" y="1336" width="70" height="30" as="geometry" />
        </mxCell>
        <mxCell id="EPZueAxWYd-J33KAulZX-92" value="&lt;b style=&quot;&quot;&gt;&lt;sub style=&quot;&quot;&gt;&lt;font style=&quot;font-size: 15px;&quot;&gt;32&lt;/font&gt;&lt;/sub&gt;&lt;/b&gt;" style="text;html=1;strokeColor=none;fillColor=none;align=center;verticalAlign=middle;whiteSpace=wrap;rounded=0;fontSize=16;" vertex="1" parent="1">
          <mxGeometry x="520" y="1336" width="20" height="22" as="geometry" />
        </mxCell>
        <mxCell id="EPZueAxWYd-J33KAulZX-93" value="" style="endArrow=none;html=1;rounded=0;strokeWidth=3;" edge="1" parent="1">
          <mxGeometry width="50" height="50" relative="1" as="geometry">
            <mxPoint x="510" y="1379" as="sourcePoint" />
            <mxPoint x="520" y="1359" as="targetPoint" />
          </mxGeometry>
        </mxCell>
        <mxCell id="EPZueAxWYd-J33KAulZX-94" value="" style="endArrow=block;html=1;strokeWidth=2;endFill=1;rounded=0;" edge="1" parent="1">
          <mxGeometry width="50" height="50" relative="1" as="geometry">
            <mxPoint x="880" y="927" as="sourcePoint" />
            <mxPoint x="1040" y="927" as="targetPoint" />
          </mxGeometry>
        </mxCell>
        <mxCell id="EPZueAxWYd-J33KAulZX-95" value="&lt;b style=&quot;border-color: var(--border-color); font-size: 18px;&quot;&gt;RD_ACK_O&lt;/b&gt;" style="text;html=1;strokeColor=none;fillColor=none;align=center;verticalAlign=middle;whiteSpace=wrap;rounded=0;fontSize=16;" vertex="1" parent="1">
          <mxGeometry x="910" y="898" width="70" height="30" as="geometry" />
        </mxCell>
        <mxCell id="EPZueAxWYd-J33KAulZX-96" value="" style="endArrow=block;html=1;strokeWidth=2;endFill=1;rounded=0;" edge="1" parent="1">
          <mxGeometry width="50" height="50" relative="1" as="geometry">
            <mxPoint x="880" y="987" as="sourcePoint" />
            <mxPoint x="1040" y="987" as="targetPoint" />
          </mxGeometry>
        </mxCell>
        <mxCell id="EPZueAxWYd-J33KAulZX-97" value="&lt;b style=&quot;border-color: var(--border-color); font-size: 18px;&quot;&gt;WR_ACK_O&lt;/b&gt;" style="text;html=1;strokeColor=none;fillColor=none;align=center;verticalAlign=middle;whiteSpace=wrap;rounded=0;fontSize=16;" vertex="1" parent="1">
          <mxGeometry x="910" y="958" width="70" height="30" as="geometry" />
        </mxCell>
        <mxCell id="EPZueAxWYd-J33KAulZX-98" value="" style="endArrow=block;html=1;strokeWidth=6;endFill=1;rounded=0;" edge="1" parent="1">
          <mxGeometry width="50" height="50" relative="1" as="geometry">
            <mxPoint x="880" y="1340" as="sourcePoint" />
            <mxPoint x="1040" y="1340" as="targetPoint" />
          </mxGeometry>
        </mxCell>
        <mxCell id="EPZueAxWYd-J33KAulZX-99" value="&lt;font size=&quot;1&quot; style=&quot;&quot;&gt;&lt;b style=&quot;font-size: 18px;&quot;&gt;DATA_O&lt;br&gt;&lt;/b&gt;&lt;/font&gt;" style="text;html=1;strokeColor=none;fillColor=none;align=center;verticalAlign=middle;whiteSpace=wrap;rounded=0;fontSize=16;" vertex="1" parent="1">
          <mxGeometry x="910" y="1308" width="70" height="30" as="geometry" />
        </mxCell>
        <mxCell id="EPZueAxWYd-J33KAulZX-100" value="&lt;span style=&quot;font-size: 15px;&quot;&gt;&lt;b&gt;32&lt;/b&gt;&lt;/span&gt;" style="text;html=1;strokeColor=none;fillColor=none;align=center;verticalAlign=middle;whiteSpace=wrap;rounded=0;fontSize=16;" vertex="1" parent="1">
          <mxGeometry x="1000" y="1308" width="20" height="22" as="geometry" />
        </mxCell>
        <mxCell id="EPZueAxWYd-J33KAulZX-101" value="" style="endArrow=none;html=1;rounded=0;strokeWidth=3;" edge="1" parent="1">
          <mxGeometry width="50" height="50" relative="1" as="geometry">
            <mxPoint x="990" y="1352" as="sourcePoint" />
            <mxPoint x="1000" y="1332" as="targetPoint" />
          </mxGeometry>
        </mxCell>
        <mxCell id="EPZueAxWYd-J33KAulZX-102" value="" style="endArrow=block;html=1;strokeWidth=6;endFill=1;rounded=0;" edge="1" parent="1">
          <mxGeometry width="50" height="50" relative="1" as="geometry">
            <mxPoint x="880" y="1399" as="sourcePoint" />
            <mxPoint x="1040" y="1399" as="targetPoint" />
          </mxGeometry>
        </mxCell>
        <mxCell id="EPZueAxWYd-J33KAulZX-103" value="&lt;font size=&quot;1&quot; style=&quot;&quot;&gt;&lt;b style=&quot;font-size: 18px;&quot;&gt;MEM_DQ_O&lt;br&gt;&lt;/b&gt;&lt;/font&gt;" style="text;html=1;strokeColor=none;fillColor=none;align=center;verticalAlign=middle;whiteSpace=wrap;rounded=0;fontSize=16;" vertex="1" parent="1">
          <mxGeometry x="910" y="1367" width="70" height="30" as="geometry" />
        </mxCell>
        <mxCell id="EPZueAxWYd-J33KAulZX-104" value="&lt;span style=&quot;font-size: 15px;&quot;&gt;&lt;b&gt;27&lt;/b&gt;&lt;/span&gt;" style="text;html=1;strokeColor=none;fillColor=none;align=center;verticalAlign=middle;whiteSpace=wrap;rounded=0;fontSize=16;" vertex="1" parent="1">
          <mxGeometry x="1000" y="1367" width="20" height="22" as="geometry" />
        </mxCell>
        <mxCell id="EPZueAxWYd-J33KAulZX-105" value="" style="endArrow=none;html=1;rounded=0;strokeWidth=3;" edge="1" parent="1">
          <mxGeometry width="50" height="50" relative="1" as="geometry">
            <mxPoint x="990" y="1411" as="sourcePoint" />
            <mxPoint x="1000" y="1391" as="targetPoint" />
          </mxGeometry>
        </mxCell>
        <mxCell id="EPZueAxWYd-J33KAulZX-106" value="" style="endArrow=block;html=1;strokeWidth=6;endFill=1;rounded=0;" edge="1" parent="1">
          <mxGeometry width="50" height="50" relative="1" as="geometry">
            <mxPoint x="880" y="1454" as="sourcePoint" />
            <mxPoint x="1040" y="1454" as="targetPoint" />
          </mxGeometry>
        </mxCell>
        <mxCell id="EPZueAxWYd-J33KAulZX-107" value="&lt;font size=&quot;1&quot; style=&quot;&quot;&gt;&lt;b style=&quot;font-size: 18px;&quot;&gt;MEM_DQ_T&lt;br&gt;&lt;/b&gt;&lt;/font&gt;" style="text;html=1;strokeColor=none;fillColor=none;align=center;verticalAlign=middle;whiteSpace=wrap;rounded=0;fontSize=16;" vertex="1" parent="1">
          <mxGeometry x="910" y="1422" width="70" height="30" as="geometry" />
        </mxCell>
        <mxCell id="EPZueAxWYd-J33KAulZX-108" value="&lt;span style=&quot;font-size: 15px;&quot;&gt;&lt;b&gt;16&lt;/b&gt;&lt;/span&gt;" style="text;html=1;strokeColor=none;fillColor=none;align=center;verticalAlign=middle;whiteSpace=wrap;rounded=0;fontSize=16;" vertex="1" parent="1">
          <mxGeometry x="1000" y="1422" width="20" height="22" as="geometry" />
        </mxCell>
        <mxCell id="EPZueAxWYd-J33KAulZX-109" value="" style="endArrow=none;html=1;rounded=0;strokeWidth=3;" edge="1" parent="1">
          <mxGeometry width="50" height="50" relative="1" as="geometry">
            <mxPoint x="990" y="1466" as="sourcePoint" />
            <mxPoint x="1000" y="1446" as="targetPoint" />
          </mxGeometry>
        </mxCell>
        <mxCell id="EPZueAxWYd-J33KAulZX-110" value="" style="endArrow=block;html=1;strokeWidth=2;endFill=1;rounded=0;" edge="1" parent="1">
          <mxGeometry width="50" height="50" relative="1" as="geometry">
            <mxPoint x="880" y="1049" as="sourcePoint" />
            <mxPoint x="1040" y="1049" as="targetPoint" />
          </mxGeometry>
        </mxCell>
        <mxCell id="EPZueAxWYd-J33KAulZX-111" value="&lt;font size=&quot;1&quot; style=&quot;&quot;&gt;&lt;b style=&quot;font-size: 18px;&quot;&gt;MEM_CEN&lt;br&gt;&lt;/b&gt;&lt;/font&gt;" style="text;html=1;strokeColor=none;fillColor=none;align=center;verticalAlign=middle;whiteSpace=wrap;rounded=0;fontSize=16;" vertex="1" parent="1">
          <mxGeometry x="910" y="1017" width="70" height="30" as="geometry" />
        </mxCell>
        <mxCell id="EPZueAxWYd-J33KAulZX-112" value="" style="endArrow=block;html=1;strokeWidth=2;endFill=1;rounded=0;" edge="1" parent="1">
          <mxGeometry width="50" height="50" relative="1" as="geometry">
            <mxPoint x="880" y="1109" as="sourcePoint" />
            <mxPoint x="1040" y="1109" as="targetPoint" />
          </mxGeometry>
        </mxCell>
        <mxCell id="EPZueAxWYd-J33KAulZX-113" value="&lt;font size=&quot;1&quot; style=&quot;&quot;&gt;&lt;b style=&quot;font-size: 18px;&quot;&gt;MEM_OEN&lt;br&gt;&lt;/b&gt;&lt;/font&gt;" style="text;html=1;strokeColor=none;fillColor=none;align=center;verticalAlign=middle;whiteSpace=wrap;rounded=0;fontSize=16;" vertex="1" parent="1">
          <mxGeometry x="910" y="1077" width="70" height="30" as="geometry" />
        </mxCell>
        <mxCell id="EPZueAxWYd-J33KAulZX-114" value="" style="endArrow=block;html=1;strokeWidth=2;endFill=1;rounded=0;" edge="1" parent="1">
          <mxGeometry width="50" height="50" relative="1" as="geometry">
            <mxPoint x="880" y="1170" as="sourcePoint" />
            <mxPoint x="1040" y="1170" as="targetPoint" />
          </mxGeometry>
        </mxCell>
        <mxCell id="EPZueAxWYd-J33KAulZX-115" value="&lt;font size=&quot;1&quot; style=&quot;&quot;&gt;&lt;b style=&quot;font-size: 18px;&quot;&gt;MEM_WEN&lt;br&gt;&lt;/b&gt;&lt;/font&gt;" style="text;html=1;strokeColor=none;fillColor=none;align=center;verticalAlign=middle;whiteSpace=wrap;rounded=0;fontSize=16;" vertex="1" parent="1">
          <mxGeometry x="910" y="1138" width="70" height="30" as="geometry" />
        </mxCell>
        <mxCell id="EPZueAxWYd-J33KAulZX-116" value="" style="endArrow=block;html=1;strokeWidth=2;endFill=1;rounded=0;" edge="1" parent="1">
          <mxGeometry width="50" height="50" relative="1" as="geometry">
            <mxPoint x="880" y="1225" as="sourcePoint" />
            <mxPoint x="1040" y="1225" as="targetPoint" />
          </mxGeometry>
        </mxCell>
        <mxCell id="EPZueAxWYd-J33KAulZX-117" value="&lt;font size=&quot;1&quot; style=&quot;&quot;&gt;&lt;b style=&quot;font-size: 18px;&quot;&gt;MEM_UB&lt;br&gt;&lt;/b&gt;&lt;/font&gt;" style="text;html=1;strokeColor=none;fillColor=none;align=center;verticalAlign=middle;whiteSpace=wrap;rounded=0;fontSize=16;" vertex="1" parent="1">
          <mxGeometry x="910" y="1193" width="70" height="30" as="geometry" />
        </mxCell>
        <mxCell id="EPZueAxWYd-J33KAulZX-118" value="" style="endArrow=block;html=1;strokeWidth=2;endFill=1;rounded=0;" edge="1" parent="1">
          <mxGeometry width="50" height="50" relative="1" as="geometry">
            <mxPoint x="880" y="1286.5" as="sourcePoint" />
            <mxPoint x="1040" y="1286.5" as="targetPoint" />
          </mxGeometry>
        </mxCell>
        <mxCell id="EPZueAxWYd-J33KAulZX-119" value="&lt;font size=&quot;1&quot; style=&quot;&quot;&gt;&lt;b style=&quot;font-size: 18px;&quot;&gt;MEM_LB&lt;br&gt;&lt;/b&gt;&lt;/font&gt;" style="text;html=1;strokeColor=none;fillColor=none;align=center;verticalAlign=middle;whiteSpace=wrap;rounded=0;fontSize=16;" vertex="1" parent="1">
          <mxGeometry x="910" y="1254.5" width="70" height="30" as="geometry" />
        </mxCell>
        <mxCell id="EPZueAxWYd-J33KAulZX-120" value="&lt;font size=&quot;1&quot; style=&quot;&quot;&gt;&lt;b style=&quot;font-size: 25px;&quot;&gt;RAM_2_DDR&lt;/b&gt;&lt;/font&gt;" style="rounded=0;whiteSpace=wrap;html=1;strokeWidth=4;" vertex="1" parent="1">
          <mxGeometry x="1435" y="799" width="320" height="840" as="geometry" />
        </mxCell>
        <mxCell id="EPZueAxWYd-J33KAulZX-121" value="" style="endArrow=block;html=1;strokeWidth=2;endFill=1;rounded=0;" edge="1" parent="1">
          <mxGeometry width="50" height="50" relative="1" as="geometry">
            <mxPoint x="1275" y="1018" as="sourcePoint" />
            <mxPoint x="1435" y="1018" as="targetPoint" />
          </mxGeometry>
        </mxCell>
        <mxCell id="EPZueAxWYd-J33KAulZX-122" value="" style="endArrow=block;html=1;strokeWidth=2;endFill=1;rounded=0;" edge="1" parent="1">
          <mxGeometry width="50" height="50" relative="1" as="geometry">
            <mxPoint x="1275" y="958" as="sourcePoint" />
            <mxPoint x="1435" y="958" as="targetPoint" />
          </mxGeometry>
        </mxCell>
        <mxCell id="EPZueAxWYd-J33KAulZX-123" value="&lt;font size=&quot;1&quot; style=&quot;&quot;&gt;&lt;b style=&quot;font-size: 18px;&quot;&gt;CLK_200_I&lt;/b&gt;&lt;/font&gt;" style="text;html=1;strokeColor=none;fillColor=none;align=center;verticalAlign=middle;whiteSpace=wrap;rounded=0;fontSize=16;" vertex="1" parent="1">
          <mxGeometry x="1315" y="928" width="70" height="30" as="geometry" />
        </mxCell>
        <mxCell id="EPZueAxWYd-J33KAulZX-124" value="&lt;font size=&quot;1&quot; style=&quot;&quot;&gt;&lt;b style=&quot;font-size: 18px;&quot;&gt;RST_I&lt;/b&gt;&lt;/font&gt;" style="text;html=1;strokeColor=none;fillColor=none;align=center;verticalAlign=middle;whiteSpace=wrap;rounded=0;fontSize=16;" vertex="1" parent="1">
          <mxGeometry x="1325" y="988" width="70" height="30" as="geometry" />
        </mxCell>
        <mxCell id="EPZueAxWYd-J33KAulZX-125" value="" style="triangle;whiteSpace=wrap;html=1;strokeWidth=4;" vertex="1" parent="1">
          <mxGeometry x="1435" y="948" width="20" height="25" as="geometry" />
        </mxCell>
        <mxCell id="EPZueAxWYd-J33KAulZX-126" value="" style="endArrow=block;html=1;strokeWidth=6;endFill=1;rounded=0;" edge="1" parent="1">
          <mxGeometry width="50" height="50" relative="1" as="geometry">
            <mxPoint x="1275" y="1138" as="sourcePoint" />
            <mxPoint x="1435" y="1138" as="targetPoint" />
          </mxGeometry>
        </mxCell>
        <mxCell id="EPZueAxWYd-J33KAulZX-127" value="&lt;font size=&quot;1&quot; style=&quot;&quot;&gt;&lt;b style=&quot;font-size: 18px;&quot;&gt;RAM_A&lt;/b&gt;&lt;/font&gt;" style="text;html=1;strokeColor=none;fillColor=none;align=center;verticalAlign=middle;whiteSpace=wrap;rounded=0;fontSize=16;" vertex="1" parent="1">
          <mxGeometry x="1275" y="1108" width="70" height="30" as="geometry" />
        </mxCell>
        <mxCell id="EPZueAxWYd-J33KAulZX-128" value="&lt;b style=&quot;&quot;&gt;&lt;sub style=&quot;&quot;&gt;&lt;font style=&quot;font-size: 15px;&quot;&gt;27&lt;/font&gt;&lt;/sub&gt;&lt;/b&gt;" style="text;html=1;strokeColor=none;fillColor=none;align=center;verticalAlign=middle;whiteSpace=wrap;rounded=0;fontSize=16;" vertex="1" parent="1">
          <mxGeometry x="1395" y="1108" width="20" height="22" as="geometry" />
        </mxCell>
        <mxCell id="EPZueAxWYd-J33KAulZX-129" value="" style="endArrow=none;html=1;rounded=0;strokeWidth=3;" edge="1" parent="1">
          <mxGeometry width="50" height="50" relative="1" as="geometry">
            <mxPoint x="1385" y="1150" as="sourcePoint" />
            <mxPoint x="1395" y="1130" as="targetPoint" />
          </mxGeometry>
        </mxCell>
        <mxCell id="EPZueAxWYd-J33KAulZX-130" value="" style="endArrow=block;html=1;strokeWidth=6;endFill=1;rounded=0;" edge="1" parent="1">
          <mxGeometry width="50" height="50" relative="1" as="geometry">
            <mxPoint x="1275" y="1078" as="sourcePoint" />
            <mxPoint x="1435" y="1078" as="targetPoint" />
          </mxGeometry>
        </mxCell>
        <mxCell id="EPZueAxWYd-J33KAulZX-131" value="&lt;font size=&quot;1&quot; style=&quot;&quot;&gt;&lt;b style=&quot;font-size: 18px;&quot;&gt;DEV_TMP_I&lt;/b&gt;&lt;/font&gt;" style="text;html=1;strokeColor=none;fillColor=none;align=center;verticalAlign=middle;whiteSpace=wrap;rounded=0;fontSize=16;" vertex="1" parent="1">
          <mxGeometry x="1295" y="1048" width="70" height="30" as="geometry" />
        </mxCell>
        <mxCell id="EPZueAxWYd-J33KAulZX-132" value="&lt;b style=&quot;&quot;&gt;&lt;sub style=&quot;&quot;&gt;&lt;font style=&quot;font-size: 15px;&quot;&gt;12&lt;/font&gt;&lt;/sub&gt;&lt;/b&gt;" style="text;html=1;strokeColor=none;fillColor=none;align=center;verticalAlign=middle;whiteSpace=wrap;rounded=0;fontSize=16;" vertex="1" parent="1">
          <mxGeometry x="1393" y="1046" width="20" height="22" as="geometry" />
        </mxCell>
        <mxCell id="EPZueAxWYd-J33KAulZX-133" value="" style="endArrow=none;html=1;rounded=0;strokeWidth=3;" edge="1" parent="1">
          <mxGeometry width="50" height="50" relative="1" as="geometry">
            <mxPoint x="1385" y="1090" as="sourcePoint" />
            <mxPoint x="1395" y="1070" as="targetPoint" />
          </mxGeometry>
        </mxCell>
        <mxCell id="EPZueAxWYd-J33KAulZX-134" value="" style="endArrow=block;html=1;strokeWidth=2;endFill=1;rounded=0;" edge="1" parent="1">
          <mxGeometry width="50" height="50" relative="1" as="geometry">
            <mxPoint x="1275" y="1198" as="sourcePoint" />
            <mxPoint x="1435" y="1198" as="targetPoint" />
          </mxGeometry>
        </mxCell>
        <mxCell id="EPZueAxWYd-J33KAulZX-135" value="&lt;font size=&quot;1&quot; style=&quot;&quot;&gt;&lt;b style=&quot;font-size: 18px;&quot;&gt;RAM_CEN&lt;/b&gt;&lt;/font&gt;" style="text;html=1;strokeColor=none;fillColor=none;align=center;verticalAlign=middle;whiteSpace=wrap;rounded=0;fontSize=16;" vertex="1" parent="1">
          <mxGeometry x="1325" y="1168" width="70" height="30" as="geometry" />
        </mxCell>
        <mxCell id="EPZueAxWYd-J33KAulZX-136" value="" style="endArrow=block;html=1;strokeWidth=2;endFill=1;rounded=0;" edge="1" parent="1">
          <mxGeometry width="50" height="50" relative="1" as="geometry">
            <mxPoint x="1275" y="1259" as="sourcePoint" />
            <mxPoint x="1435" y="1259" as="targetPoint" />
          </mxGeometry>
        </mxCell>
        <mxCell id="EPZueAxWYd-J33KAulZX-137" value="&lt;font size=&quot;1&quot; style=&quot;&quot;&gt;&lt;b style=&quot;font-size: 18px;&quot;&gt;RAM_OEN&lt;/b&gt;&lt;/font&gt;" style="text;html=1;strokeColor=none;fillColor=none;align=center;verticalAlign=middle;whiteSpace=wrap;rounded=0;fontSize=16;" vertex="1" parent="1">
          <mxGeometry x="1325" y="1229" width="70" height="30" as="geometry" />
        </mxCell>
        <mxCell id="EPZueAxWYd-J33KAulZX-138" value="" style="endArrow=block;html=1;strokeWidth=2;endFill=1;rounded=0;" edge="1" parent="1">
          <mxGeometry width="50" height="50" relative="1" as="geometry">
            <mxPoint x="1275" y="1318" as="sourcePoint" />
            <mxPoint x="1435" y="1318" as="targetPoint" />
          </mxGeometry>
        </mxCell>
        <mxCell id="EPZueAxWYd-J33KAulZX-139" value="&lt;font size=&quot;1&quot; style=&quot;&quot;&gt;&lt;b style=&quot;font-size: 18px;&quot;&gt;RAM_WEN&lt;/b&gt;&lt;/font&gt;" style="text;html=1;strokeColor=none;fillColor=none;align=center;verticalAlign=middle;whiteSpace=wrap;rounded=0;fontSize=16;" vertex="1" parent="1">
          <mxGeometry x="1325" y="1288" width="70" height="30" as="geometry" />
        </mxCell>
        <mxCell id="EPZueAxWYd-J33KAulZX-140" value="" style="endArrow=block;html=1;strokeWidth=2;endFill=1;rounded=0;" edge="1" parent="1">
          <mxGeometry width="50" height="50" relative="1" as="geometry">
            <mxPoint x="1275" y="1377.5" as="sourcePoint" />
            <mxPoint x="1435" y="1377.5" as="targetPoint" />
          </mxGeometry>
        </mxCell>
        <mxCell id="EPZueAxWYd-J33KAulZX-141" value="&lt;font size=&quot;1&quot; style=&quot;&quot;&gt;&lt;b style=&quot;font-size: 18px;&quot;&gt;RAM_UB&lt;/b&gt;&lt;/font&gt;" style="text;html=1;strokeColor=none;fillColor=none;align=center;verticalAlign=middle;whiteSpace=wrap;rounded=0;fontSize=16;" vertex="1" parent="1">
          <mxGeometry x="1325" y="1347.5" width="70" height="30" as="geometry" />
        </mxCell>
        <mxCell id="EPZueAxWYd-J33KAulZX-142" value="" style="endArrow=block;html=1;strokeWidth=2;endFill=1;rounded=0;" edge="1" parent="1">
          <mxGeometry width="50" height="50" relative="1" as="geometry">
            <mxPoint x="1275" y="1438" as="sourcePoint" />
            <mxPoint x="1435" y="1438" as="targetPoint" />
          </mxGeometry>
        </mxCell>
        <mxCell id="EPZueAxWYd-J33KAulZX-143" value="&lt;font size=&quot;1&quot; style=&quot;&quot;&gt;&lt;b style=&quot;font-size: 18px;&quot;&gt;RAM_LB&lt;/b&gt;&lt;/font&gt;" style="text;html=1;strokeColor=none;fillColor=none;align=center;verticalAlign=middle;whiteSpace=wrap;rounded=0;fontSize=16;" vertex="1" parent="1">
          <mxGeometry x="1325" y="1408" width="70" height="30" as="geometry" />
        </mxCell>
        <mxCell id="EPZueAxWYd-J33KAulZX-144" value="&lt;font size=&quot;1&quot; style=&quot;&quot;&gt;&lt;b style=&quot;font-size: 18px;&quot;&gt;DDR2_CK_P&lt;br&gt;&lt;/b&gt;&lt;/font&gt;" style="text;html=1;strokeColor=none;fillColor=none;align=center;verticalAlign=middle;whiteSpace=wrap;rounded=0;fontSize=16;" vertex="1" parent="1">
          <mxGeometry x="1798" y="1109" width="70" height="30" as="geometry" />
        </mxCell>
        <mxCell id="EPZueAxWYd-J33KAulZX-145" value="" style="endArrow=block;html=1;strokeWidth=6;endFill=1;rounded=0;exitX=1.005;exitY=0.118;exitDx=0;exitDy=0;exitPerimeter=0;" edge="1" parent="1" source="EPZueAxWYd-J33KAulZX-120">
          <mxGeometry width="50" height="50" relative="1" as="geometry">
            <mxPoint x="1755" y="900" as="sourcePoint" />
            <mxPoint x="1955" y="898" as="targetPoint" />
          </mxGeometry>
        </mxCell>
        <mxCell id="EPZueAxWYd-J33KAulZX-146" value="&lt;font size=&quot;1&quot; style=&quot;&quot;&gt;&lt;b style=&quot;font-size: 18px;&quot;&gt;DDR2_BA&lt;br&gt;&lt;/b&gt;&lt;/font&gt;" style="text;html=1;strokeColor=none;fillColor=none;align=center;verticalAlign=middle;whiteSpace=wrap;rounded=0;fontSize=16;" vertex="1" parent="1">
          <mxGeometry x="1790" y="868" width="70" height="30" as="geometry" />
        </mxCell>
        <mxCell id="EPZueAxWYd-J33KAulZX-147" value="&lt;span style=&quot;font-size: 15px;&quot;&gt;&lt;b&gt;3&lt;/b&gt;&lt;/span&gt;" style="text;html=1;strokeColor=none;fillColor=none;align=center;verticalAlign=middle;whiteSpace=wrap;rounded=0;fontSize=16;" vertex="1" parent="1">
          <mxGeometry x="1910" y="866" width="20" height="22" as="geometry" />
        </mxCell>
        <mxCell id="EPZueAxWYd-J33KAulZX-148" value="" style="endArrow=none;html=1;rounded=0;strokeWidth=3;" edge="1" parent="1">
          <mxGeometry width="50" height="50" relative="1" as="geometry">
            <mxPoint x="1902" y="909" as="sourcePoint" />
            <mxPoint x="1912" y="889" as="targetPoint" />
          </mxGeometry>
        </mxCell>
        <mxCell id="EPZueAxWYd-J33KAulZX-149" value="" style="endArrow=block;html=1;strokeWidth=6;endFill=1;rounded=0;exitX=0.997;exitY=0.049;exitDx=0;exitDy=0;exitPerimeter=0;" edge="1" parent="1" source="EPZueAxWYd-J33KAulZX-120">
          <mxGeometry width="50" height="50" relative="1" as="geometry">
            <mxPoint x="1755" y="843" as="sourcePoint" />
            <mxPoint x="1955" y="839" as="targetPoint" />
          </mxGeometry>
        </mxCell>
        <mxCell id="EPZueAxWYd-J33KAulZX-150" value="&lt;font size=&quot;1&quot; style=&quot;&quot;&gt;&lt;b style=&quot;font-size: 18px;&quot;&gt;DDR2_ADDR&lt;br&gt;&lt;/b&gt;&lt;/font&gt;" style="text;html=1;strokeColor=none;fillColor=none;align=center;verticalAlign=middle;whiteSpace=wrap;rounded=0;fontSize=16;" vertex="1" parent="1">
          <mxGeometry x="1790" y="811" width="70" height="30" as="geometry" />
        </mxCell>
        <mxCell id="EPZueAxWYd-J33KAulZX-151" value="&lt;span style=&quot;font-size: 15px;&quot;&gt;&lt;b&gt;13&lt;/b&gt;&lt;/span&gt;" style="text;html=1;strokeColor=none;fillColor=none;align=center;verticalAlign=middle;whiteSpace=wrap;rounded=0;fontSize=16;" vertex="1" parent="1">
          <mxGeometry x="1910" y="809" width="20" height="22" as="geometry" />
        </mxCell>
        <mxCell id="EPZueAxWYd-J33KAulZX-152" value="" style="endArrow=none;html=1;rounded=0;strokeWidth=3;" edge="1" parent="1">
          <mxGeometry width="50" height="50" relative="1" as="geometry">
            <mxPoint x="1902" y="852" as="sourcePoint" />
            <mxPoint x="1912" y="832" as="targetPoint" />
          </mxGeometry>
        </mxCell>
        <mxCell id="EPZueAxWYd-J33KAulZX-153" value="" style="endArrow=block;html=1;strokeWidth=2;endFill=1;rounded=0;exitX=0.999;exitY=0.293;exitDx=0;exitDy=0;exitPerimeter=0;" edge="1" parent="1">
          <mxGeometry width="50" height="50" relative="1" as="geometry">
            <mxPoint x="1755" y="958.75" as="sourcePoint" />
            <mxPoint x="1955.3200000000002" y="959" as="targetPoint" />
          </mxGeometry>
        </mxCell>
        <mxCell id="EPZueAxWYd-J33KAulZX-154" value="&lt;font size=&quot;1&quot; style=&quot;&quot;&gt;&lt;b style=&quot;font-size: 18px;&quot;&gt;DDR2_RAS_N&lt;br&gt;&lt;/b&gt;&lt;/font&gt;" style="text;html=1;strokeColor=none;fillColor=none;align=center;verticalAlign=middle;whiteSpace=wrap;rounded=0;fontSize=16;" vertex="1" parent="1">
          <mxGeometry x="1798.3200000000002" y="929" width="70" height="30" as="geometry" />
        </mxCell>
        <mxCell id="EPZueAxWYd-J33KAulZX-155" value="" style="endArrow=block;html=1;strokeWidth=2;endFill=1;rounded=0;" edge="1" parent="1">
          <mxGeometry width="50" height="50" relative="1" as="geometry">
            <mxPoint x="1755.3200000000002" y="1020" as="sourcePoint" />
            <mxPoint x="1955.3200000000002" y="1020" as="targetPoint" />
          </mxGeometry>
        </mxCell>
        <mxCell id="EPZueAxWYd-J33KAulZX-156" value="&lt;font size=&quot;1&quot; style=&quot;&quot;&gt;&lt;b style=&quot;font-size: 18px;&quot;&gt;DDR2_CAS_N&lt;br&gt;&lt;/b&gt;&lt;/font&gt;" style="text;html=1;strokeColor=none;fillColor=none;align=center;verticalAlign=middle;whiteSpace=wrap;rounded=0;fontSize=16;" vertex="1" parent="1">
          <mxGeometry x="1798.3200000000002" y="988" width="70" height="30" as="geometry" />
        </mxCell>
        <mxCell id="EPZueAxWYd-J33KAulZX-157" value="" style="endArrow=block;html=1;strokeWidth=2;endFill=1;rounded=0;" edge="1" parent="1">
          <mxGeometry width="50" height="50" relative="1" as="geometry">
            <mxPoint x="1755.3200000000002" y="1082" as="sourcePoint" />
            <mxPoint x="1955.3200000000002" y="1082" as="targetPoint" />
          </mxGeometry>
        </mxCell>
        <mxCell id="EPZueAxWYd-J33KAulZX-158" value="&lt;font size=&quot;1&quot; style=&quot;&quot;&gt;&lt;b style=&quot;font-size: 18px;&quot;&gt;DDR2_WE_N&lt;br&gt;&lt;/b&gt;&lt;/font&gt;" style="text;html=1;strokeColor=none;fillColor=none;align=center;verticalAlign=middle;whiteSpace=wrap;rounded=0;fontSize=16;" vertex="1" parent="1">
          <mxGeometry x="1798.3200000000002" y="1051" width="70" height="30" as="geometry" />
        </mxCell>
        <mxCell id="EPZueAxWYd-J33KAulZX-159" value="" style="endArrow=block;html=1;strokeWidth=2;endFill=1;rounded=0;exitX=0.999;exitY=0.293;exitDx=0;exitDy=0;exitPerimeter=0;" edge="1" parent="1">
          <mxGeometry width="50" height="50" relative="1" as="geometry">
            <mxPoint x="1755" y="1139" as="sourcePoint" />
            <mxPoint x="1955" y="1139" as="targetPoint" />
          </mxGeometry>
        </mxCell>
        <mxCell id="EPZueAxWYd-J33KAulZX-160" value="&lt;font size=&quot;1&quot; style=&quot;&quot;&gt;&lt;b style=&quot;font-size: 18px;&quot;&gt;DDR2_CK_N&lt;br&gt;&lt;/b&gt;&lt;/font&gt;" style="text;html=1;strokeColor=none;fillColor=none;align=center;verticalAlign=middle;whiteSpace=wrap;rounded=0;fontSize=16;" vertex="1" parent="1">
          <mxGeometry x="1798" y="1169" width="70" height="30" as="geometry" />
        </mxCell>
        <mxCell id="EPZueAxWYd-J33KAulZX-161" value="" style="endArrow=block;html=1;strokeWidth=2;endFill=1;rounded=0;exitX=0.999;exitY=0.293;exitDx=0;exitDy=0;exitPerimeter=0;" edge="1" parent="1">
          <mxGeometry width="50" height="50" relative="1" as="geometry">
            <mxPoint x="1755" y="1199" as="sourcePoint" />
            <mxPoint x="1955" y="1199" as="targetPoint" />
          </mxGeometry>
        </mxCell>
        <mxCell id="EPZueAxWYd-J33KAulZX-162" value="&lt;font size=&quot;1&quot; style=&quot;&quot;&gt;&lt;b style=&quot;font-size: 18px;&quot;&gt;DDR2_CKE&lt;br&gt;&lt;/b&gt;&lt;/font&gt;" style="text;html=1;strokeColor=none;fillColor=none;align=center;verticalAlign=middle;whiteSpace=wrap;rounded=0;fontSize=16;" vertex="1" parent="1">
          <mxGeometry x="1798" y="1229" width="70" height="30" as="geometry" />
        </mxCell>
        <mxCell id="EPZueAxWYd-J33KAulZX-163" value="" style="endArrow=block;html=1;strokeWidth=2;endFill=1;rounded=0;exitX=0.999;exitY=0.293;exitDx=0;exitDy=0;exitPerimeter=0;" edge="1" parent="1">
          <mxGeometry width="50" height="50" relative="1" as="geometry">
            <mxPoint x="1755" y="1259" as="sourcePoint" />
            <mxPoint x="1955" y="1259" as="targetPoint" />
          </mxGeometry>
        </mxCell>
        <mxCell id="EPZueAxWYd-J33KAulZX-164" value="&lt;font size=&quot;1&quot; style=&quot;&quot;&gt;&lt;b style=&quot;font-size: 18px;&quot;&gt;DDR2_CS_N&lt;br&gt;&lt;/b&gt;&lt;/font&gt;" style="text;html=1;strokeColor=none;fillColor=none;align=center;verticalAlign=middle;whiteSpace=wrap;rounded=0;fontSize=16;" vertex="1" parent="1">
          <mxGeometry x="1798" y="1289" width="70" height="30" as="geometry" />
        </mxCell>
        <mxCell id="EPZueAxWYd-J33KAulZX-165" value="" style="endArrow=block;html=1;strokeWidth=2;endFill=1;rounded=0;exitX=0.999;exitY=0.293;exitDx=0;exitDy=0;exitPerimeter=0;" edge="1" parent="1">
          <mxGeometry width="50" height="50" relative="1" as="geometry">
            <mxPoint x="1755" y="1319" as="sourcePoint" />
            <mxPoint x="1955" y="1319" as="targetPoint" />
          </mxGeometry>
        </mxCell>
        <mxCell id="EPZueAxWYd-J33KAulZX-166" value="&lt;font size=&quot;1&quot; style=&quot;&quot;&gt;&lt;b style=&quot;font-size: 18px;&quot;&gt;DDR2_ODT&lt;br&gt;&lt;/b&gt;&lt;/font&gt;" style="text;html=1;strokeColor=none;fillColor=none;align=center;verticalAlign=middle;whiteSpace=wrap;rounded=0;fontSize=16;" vertex="1" parent="1">
          <mxGeometry x="1798" y="1409" width="70" height="30" as="geometry" />
        </mxCell>
        <mxCell id="EPZueAxWYd-J33KAulZX-167" value="" style="endArrow=block;html=1;strokeWidth=2;endFill=1;rounded=0;exitX=0.999;exitY=0.293;exitDx=0;exitDy=0;exitPerimeter=0;" edge="1" parent="1">
          <mxGeometry width="50" height="50" relative="1" as="geometry">
            <mxPoint x="1755" y="1439" as="sourcePoint" />
            <mxPoint x="1955" y="1439" as="targetPoint" />
          </mxGeometry>
        </mxCell>
        <mxCell id="EPZueAxWYd-J33KAulZX-168" value="" style="endArrow=block;html=1;strokeWidth=6;endFill=1;rounded=0;exitX=1.001;exitY=0.132;exitDx=0;exitDy=0;exitPerimeter=0;" edge="1" parent="1">
          <mxGeometry width="50" height="50" relative="1" as="geometry">
            <mxPoint x="1755" y="1381" as="sourcePoint" />
            <mxPoint x="1955" y="1381" as="targetPoint" />
          </mxGeometry>
        </mxCell>
        <mxCell id="EPZueAxWYd-J33KAulZX-169" value="&lt;font size=&quot;1&quot; style=&quot;&quot;&gt;&lt;b style=&quot;font-size: 18px;&quot;&gt;DDR2_DM&lt;br&gt;&lt;/b&gt;&lt;/font&gt;" style="text;html=1;strokeColor=none;fillColor=none;align=center;verticalAlign=middle;whiteSpace=wrap;rounded=0;fontSize=16;" vertex="1" parent="1">
          <mxGeometry x="1790" y="1351" width="70" height="30" as="geometry" />
        </mxCell>
        <mxCell id="EPZueAxWYd-J33KAulZX-170" value="&lt;span style=&quot;font-size: 15px;&quot;&gt;&lt;b&gt;2&lt;/b&gt;&lt;/span&gt;" style="text;html=1;strokeColor=none;fillColor=none;align=center;verticalAlign=middle;whiteSpace=wrap;rounded=0;fontSize=16;" vertex="1" parent="1">
          <mxGeometry x="1910" y="1349" width="20" height="22" as="geometry" />
        </mxCell>
        <mxCell id="EPZueAxWYd-J33KAulZX-171" value="" style="endArrow=none;html=1;rounded=0;strokeWidth=3;" edge="1" parent="1">
          <mxGeometry width="50" height="50" relative="1" as="geometry">
            <mxPoint x="1902" y="1392" as="sourcePoint" />
            <mxPoint x="1912" y="1372" as="targetPoint" />
          </mxGeometry>
        </mxCell>
        <mxCell id="EPZueAxWYd-J33KAulZX-172" value="" style="endArrow=block;html=1;strokeWidth=6;endFill=1;rounded=0;exitX=1.001;exitY=0.132;exitDx=0;exitDy=0;exitPerimeter=0;" edge="1" parent="1">
          <mxGeometry width="50" height="50" relative="1" as="geometry">
            <mxPoint x="1755" y="1501" as="sourcePoint" />
            <mxPoint x="1955" y="1501" as="targetPoint" />
          </mxGeometry>
        </mxCell>
        <mxCell id="EPZueAxWYd-J33KAulZX-173" value="&lt;font size=&quot;1&quot; style=&quot;&quot;&gt;&lt;b style=&quot;font-size: 18px;&quot;&gt;DDR2_DQ&lt;br&gt;&lt;/b&gt;&lt;/font&gt;" style="text;html=1;strokeColor=none;fillColor=none;align=center;verticalAlign=middle;whiteSpace=wrap;rounded=0;fontSize=16;" vertex="1" parent="1">
          <mxGeometry x="1790" y="1471" width="70" height="30" as="geometry" />
        </mxCell>
        <mxCell id="EPZueAxWYd-J33KAulZX-174" value="&lt;span style=&quot;font-size: 15px;&quot;&gt;&lt;b&gt;16&lt;/b&gt;&lt;/span&gt;" style="text;html=1;strokeColor=none;fillColor=none;align=center;verticalAlign=middle;whiteSpace=wrap;rounded=0;fontSize=16;" vertex="1" parent="1">
          <mxGeometry x="1910" y="1469" width="20" height="22" as="geometry" />
        </mxCell>
        <mxCell id="EPZueAxWYd-J33KAulZX-175" value="" style="endArrow=none;html=1;rounded=0;strokeWidth=3;" edge="1" parent="1">
          <mxGeometry width="50" height="50" relative="1" as="geometry">
            <mxPoint x="1902" y="1512" as="sourcePoint" />
            <mxPoint x="1912" y="1492" as="targetPoint" />
          </mxGeometry>
        </mxCell>
        <mxCell id="EPZueAxWYd-J33KAulZX-176" value="" style="endArrow=block;html=1;strokeWidth=6;endFill=1;rounded=0;exitX=1.001;exitY=0.132;exitDx=0;exitDy=0;exitPerimeter=0;" edge="1" parent="1">
          <mxGeometry width="50" height="50" relative="1" as="geometry">
            <mxPoint x="1755" y="1561" as="sourcePoint" />
            <mxPoint x="1955" y="1561" as="targetPoint" />
          </mxGeometry>
        </mxCell>
        <mxCell id="EPZueAxWYd-J33KAulZX-177" value="&lt;font size=&quot;1&quot; style=&quot;&quot;&gt;&lt;b style=&quot;font-size: 18px;&quot;&gt;DDR2_DQS_P&lt;br&gt;&lt;/b&gt;&lt;/font&gt;" style="text;html=1;strokeColor=none;fillColor=none;align=center;verticalAlign=middle;whiteSpace=wrap;rounded=0;fontSize=16;" vertex="1" parent="1">
          <mxGeometry x="1794" y="1531" width="70" height="30" as="geometry" />
        </mxCell>
        <mxCell id="EPZueAxWYd-J33KAulZX-178" value="&lt;span style=&quot;font-size: 15px;&quot;&gt;&lt;b&gt;2&lt;/b&gt;&lt;/span&gt;" style="text;html=1;strokeColor=none;fillColor=none;align=center;verticalAlign=middle;whiteSpace=wrap;rounded=0;fontSize=16;" vertex="1" parent="1">
          <mxGeometry x="1910" y="1529" width="20" height="22" as="geometry" />
        </mxCell>
        <mxCell id="EPZueAxWYd-J33KAulZX-179" value="" style="endArrow=none;html=1;rounded=0;strokeWidth=3;" edge="1" parent="1">
          <mxGeometry width="50" height="50" relative="1" as="geometry">
            <mxPoint x="1902" y="1572" as="sourcePoint" />
            <mxPoint x="1912" y="1552" as="targetPoint" />
          </mxGeometry>
        </mxCell>
        <mxCell id="EPZueAxWYd-J33KAulZX-180" value="" style="endArrow=block;html=1;strokeWidth=6;endFill=1;rounded=0;exitX=1.001;exitY=0.132;exitDx=0;exitDy=0;exitPerimeter=0;" edge="1" parent="1">
          <mxGeometry width="50" height="50" relative="1" as="geometry">
            <mxPoint x="1755" y="1621" as="sourcePoint" />
            <mxPoint x="1955" y="1621" as="targetPoint" />
          </mxGeometry>
        </mxCell>
        <mxCell id="EPZueAxWYd-J33KAulZX-181" value="&lt;font size=&quot;1&quot; style=&quot;&quot;&gt;&lt;b style=&quot;font-size: 18px;&quot;&gt;DDR2_DQS_N&lt;br&gt;&lt;/b&gt;&lt;/font&gt;" style="text;html=1;strokeColor=none;fillColor=none;align=center;verticalAlign=middle;whiteSpace=wrap;rounded=0;fontSize=16;" vertex="1" parent="1">
          <mxGeometry x="1792" y="1591" width="70" height="30" as="geometry" />
        </mxCell>
        <mxCell id="EPZueAxWYd-J33KAulZX-182" value="&lt;span style=&quot;font-size: 15px;&quot;&gt;&lt;b&gt;2&lt;/b&gt;&lt;/span&gt;" style="text;html=1;strokeColor=none;fillColor=none;align=center;verticalAlign=middle;whiteSpace=wrap;rounded=0;fontSize=16;" vertex="1" parent="1">
          <mxGeometry x="1910" y="1589" width="20" height="22" as="geometry" />
        </mxCell>
        <mxCell id="EPZueAxWYd-J33KAulZX-183" value="" style="endArrow=none;html=1;rounded=0;strokeWidth=3;" edge="1" parent="1">
          <mxGeometry width="50" height="50" relative="1" as="geometry">
            <mxPoint x="1902" y="1632" as="sourcePoint" />
            <mxPoint x="1912" y="1612" as="targetPoint" />
          </mxGeometry>
        </mxCell>
        <mxCell id="EPZueAxWYd-J33KAulZX-184" value="&lt;font size=&quot;1&quot; style=&quot;&quot;&gt;&lt;b style=&quot;font-size: 25px;&quot;&gt;LED_BAR&lt;/b&gt;&lt;/font&gt;" style="rounded=0;whiteSpace=wrap;html=1;strokeWidth=4;" vertex="1" parent="1">
          <mxGeometry x="3230" y="601" width="320" height="240" as="geometry" />
        </mxCell>
        <mxCell id="EPZueAxWYd-J33KAulZX-185" value="" style="endArrow=block;html=1;strokeWidth=2;endFill=1;rounded=0;" edge="1" parent="1">
          <mxGeometry width="50" height="50" relative="1" as="geometry">
            <mxPoint x="3070" y="721" as="sourcePoint" />
            <mxPoint x="3230" y="721" as="targetPoint" />
          </mxGeometry>
        </mxCell>
        <mxCell id="EPZueAxWYd-J33KAulZX-186" value="" style="endArrow=block;html=1;strokeWidth=2;endFill=1;rounded=0;" edge="1" parent="1">
          <mxGeometry width="50" height="50" relative="1" as="geometry">
            <mxPoint x="3070" y="640" as="sourcePoint" />
            <mxPoint x="3230" y="640" as="targetPoint" />
          </mxGeometry>
        </mxCell>
        <mxCell id="EPZueAxWYd-J33KAulZX-187" value="&lt;font size=&quot;1&quot; style=&quot;&quot;&gt;&lt;b style=&quot;font-size: 18px;&quot;&gt;CLK_I&lt;/b&gt;&lt;/font&gt;" style="text;html=1;strokeColor=none;fillColor=none;align=center;verticalAlign=middle;whiteSpace=wrap;rounded=0;fontSize=16;" vertex="1" parent="1">
          <mxGeometry x="3110" y="610" width="70" height="30" as="geometry" />
        </mxCell>
        <mxCell id="EPZueAxWYd-J33KAulZX-188" value="&lt;font size=&quot;1&quot; style=&quot;&quot;&gt;&lt;b style=&quot;font-size: 18px;&quot;&gt;EN_I&lt;/b&gt;&lt;/font&gt;" style="text;html=1;strokeColor=none;fillColor=none;align=center;verticalAlign=middle;whiteSpace=wrap;rounded=0;fontSize=16;" vertex="1" parent="1">
          <mxGeometry x="3120" y="691" width="70" height="30" as="geometry" />
        </mxCell>
        <mxCell id="EPZueAxWYd-J33KAulZX-189" value="" style="triangle;whiteSpace=wrap;html=1;strokeWidth=4;" vertex="1" parent="1">
          <mxGeometry x="3230" y="630" width="20" height="25" as="geometry" />
        </mxCell>
        <mxCell id="EPZueAxWYd-J33KAulZX-190" value="" style="endArrow=block;html=1;strokeWidth=6;endFill=1;rounded=0;exitX=1.004;exitY=0.542;exitDx=0;exitDy=0;exitPerimeter=0;" edge="1" parent="1" source="EPZueAxWYd-J33KAulZX-184">
          <mxGeometry width="50" height="50" relative="1" as="geometry">
            <mxPoint x="3570" y="731" as="sourcePoint" />
            <mxPoint x="3730" y="731" as="targetPoint" />
          </mxGeometry>
        </mxCell>
        <mxCell id="EPZueAxWYd-J33KAulZX-191" value="&lt;font size=&quot;1&quot; style=&quot;&quot;&gt;&lt;b style=&quot;font-size: 18px;&quot;&gt;LEDS_O&lt;/b&gt;&lt;/font&gt;" style="text;html=1;strokeColor=none;fillColor=none;align=center;verticalAlign=middle;whiteSpace=wrap;rounded=0;fontSize=16;" vertex="1" parent="1">
          <mxGeometry x="3590" y="701" width="70" height="30" as="geometry" />
        </mxCell>
        <mxCell id="EPZueAxWYd-J33KAulZX-192" value="&lt;b style=&quot;&quot;&gt;&lt;sub style=&quot;&quot;&gt;&lt;font style=&quot;font-size: 15px;&quot;&gt;16&lt;/font&gt;&lt;/sub&gt;&lt;/b&gt;" style="text;html=1;strokeColor=none;fillColor=none;align=center;verticalAlign=middle;whiteSpace=wrap;rounded=0;fontSize=16;" vertex="1" parent="1">
          <mxGeometry x="3688" y="699" width="20" height="22" as="geometry" />
        </mxCell>
        <mxCell id="EPZueAxWYd-J33KAulZX-193" value="" style="endArrow=none;html=1;rounded=0;strokeWidth=3;" edge="1" parent="1">
          <mxGeometry width="50" height="50" relative="1" as="geometry">
            <mxPoint x="3680" y="743" as="sourcePoint" />
            <mxPoint x="3690" y="723" as="targetPoint" />
          </mxGeometry>
        </mxCell>
        <mxCell id="EPZueAxWYd-J33KAulZX-194" value="" style="endArrow=block;html=1;strokeWidth=2;endFill=1;rounded=0;" edge="1" parent="1">
          <mxGeometry width="50" height="50" relative="1" as="geometry">
            <mxPoint x="3070" y="801" as="sourcePoint" />
            <mxPoint x="3230" y="801" as="targetPoint" />
          </mxGeometry>
        </mxCell>
        <mxCell id="EPZueAxWYd-J33KAulZX-195" value="&lt;font size=&quot;1&quot; style=&quot;&quot;&gt;&lt;b style=&quot;font-size: 18px;&quot;&gt;RNL_I&lt;/b&gt;&lt;/font&gt;" style="text;html=1;strokeColor=none;fillColor=none;align=center;verticalAlign=middle;whiteSpace=wrap;rounded=0;fontSize=16;" vertex="1" parent="1">
          <mxGeometry x="3120" y="771" width="70" height="30" as="geometry" />
        </mxCell>
        <mxCell id="EPZueAxWYd-J33KAulZX-198" value="" style="rounded=0;whiteSpace=wrap;html=1;strokeWidth=4;" vertex="1" parent="1">
          <mxGeometry x="3100" y="-523" width="540" height="955.5" as="geometry" />
        </mxCell>
        <mxCell id="EPZueAxWYd-J33KAulZX-199" value="" style="rounded=0;whiteSpace=wrap;html=1;strokeWidth=4;" vertex="1" parent="1">
          <mxGeometry x="3100" y="327" width="540" height="106" as="geometry" />
        </mxCell>
        <mxCell id="EPZueAxWYd-J33KAulZX-200" value="" style="ellipse;whiteSpace=wrap;html=1;aspect=fixed;strokeWidth=4;" vertex="1" parent="1">
          <mxGeometry x="3330" y="340" width="80" height="80" as="geometry" />
        </mxCell>
        <mxCell id="EPZueAxWYd-J33KAulZX-201" value="&lt;font style=&quot;font-size: 29px;&quot;&gt;&lt;b&gt;RECORD&lt;/b&gt;&lt;/font&gt;" style="rounded=0;whiteSpace=wrap;html=1;strokeWidth=4;" vertex="1" parent="1">
          <mxGeometry x="3205" y="-373" width="330" height="60" as="geometry" />
        </mxCell>
        <mxCell id="EPZueAxWYd-J33KAulZX-202" value="" style="triangle;whiteSpace=wrap;html=1;strokeWidth=4;" vertex="1" parent="1">
          <mxGeometry x="3180" y="-243" width="60" height="80" as="geometry" />
        </mxCell>
        <mxCell id="EPZueAxWYd-J33KAulZX-204" value="&lt;font style=&quot;font-size: 17px;&quot;&gt;||||||||||||||||||||--------- |||||||||||||| ----- |||||||||||||&lt;/font&gt;" style="rounded=0;whiteSpace=wrap;html=1;strokeWidth=4;" vertex="1" parent="1">
          <mxGeometry x="3260" y="-223" width="340" height="40" as="geometry" />
        </mxCell>
        <mxCell id="EPZueAxWYd-J33KAulZX-207" value="&lt;font size=&quot;1&quot; style=&quot;&quot;&gt;&lt;b style=&quot;font-size: 25px;&quot;&gt;MIC&lt;/b&gt;&lt;/font&gt;" style="rounded=0;whiteSpace=wrap;html=1;strokeWidth=4;" vertex="1" parent="1">
          <mxGeometry x="-500" y="-230" width="240" height="320" as="geometry" />
        </mxCell>
        <mxCell id="EPZueAxWYd-J33KAulZX-208" value="" style="endArrow=block;html=1;strokeWidth=2;endFill=1;rounded=0;" edge="1" parent="1">
          <mxGeometry width="50" height="50" relative="1" as="geometry">
            <mxPoint x="-260" y="-71" as="sourcePoint" />
            <mxPoint x="-100" y="-71" as="targetPoint" />
          </mxGeometry>
        </mxCell>
        <mxCell id="EPZueAxWYd-J33KAulZX-209" value="" style="endArrow=none;html=1;strokeWidth=2;endFill=0;rounded=0;startArrow=block;startFill=1;" edge="1" parent="1">
          <mxGeometry width="50" height="50" relative="1" as="geometry">
            <mxPoint x="-260" y="-150" as="sourcePoint" />
            <mxPoint x="-100" y="-150" as="targetPoint" />
          </mxGeometry>
        </mxCell>
        <mxCell id="EPZueAxWYd-J33KAulZX-210" value="&lt;font size=&quot;1&quot; style=&quot;&quot;&gt;&lt;b style=&quot;font-size: 18px;&quot;&gt;CLK&lt;/b&gt;&lt;/font&gt;" style="text;html=1;strokeColor=none;fillColor=none;align=center;verticalAlign=middle;whiteSpace=wrap;rounded=0;fontSize=16;" vertex="1" parent="1">
          <mxGeometry x="-230" y="-180" width="70" height="30" as="geometry" />
        </mxCell>
        <mxCell id="EPZueAxWYd-J33KAulZX-211" value="&lt;font size=&quot;1&quot; style=&quot;&quot;&gt;&lt;b style=&quot;font-size: 18px;&quot;&gt;DATA&lt;/b&gt;&lt;/font&gt;" style="text;html=1;strokeColor=none;fillColor=none;align=center;verticalAlign=middle;whiteSpace=wrap;rounded=0;fontSize=16;" vertex="1" parent="1">
          <mxGeometry x="-230" y="-111" width="70" height="30" as="geometry" />
        </mxCell>
        <mxCell id="EPZueAxWYd-J33KAulZX-212" value="" style="triangle;whiteSpace=wrap;html=1;strokeWidth=4;direction=west;" vertex="1" parent="1">
          <mxGeometry x="-280" y="-162" width="20" height="25" as="geometry" />
        </mxCell>
        <mxCell id="EPZueAxWYd-J33KAulZX-213" value="" style="endArrow=none;html=1;strokeWidth=2;endFill=0;rounded=0;startArrow=block;startFill=1;" edge="1" parent="1">
          <mxGeometry width="50" height="50" relative="1" as="geometry">
            <mxPoint x="-260" y="10" as="sourcePoint" />
            <mxPoint x="-100" y="10" as="targetPoint" />
          </mxGeometry>
        </mxCell>
        <mxCell id="EPZueAxWYd-J33KAulZX-214" value="&lt;font size=&quot;1&quot; style=&quot;&quot;&gt;&lt;b style=&quot;font-size: 18px;&quot;&gt;L/R_SEL&lt;/b&gt;&lt;/font&gt;" style="text;html=1;strokeColor=none;fillColor=none;align=center;verticalAlign=middle;whiteSpace=wrap;rounded=0;fontSize=16;" vertex="1" parent="1">
          <mxGeometry x="-230" y="-30" width="90" height="30" as="geometry" />
        </mxCell>
        <mxCell id="EPZueAxWYd-J33KAulZX-215" value="&lt;font size=&quot;1&quot; style=&quot;&quot;&gt;&lt;b style=&quot;font-size: 25px;&quot;&gt;DESERIALIZER&lt;/b&gt;&lt;/font&gt;" style="rounded=0;whiteSpace=wrap;html=1;strokeWidth=4;" vertex="1" parent="1">
          <mxGeometry x="290" y="-243" width="320" height="400" as="geometry" />
        </mxCell>
        <mxCell id="EPZueAxWYd-J33KAulZX-216" value="" style="endArrow=block;html=1;strokeWidth=2;endFill=1;rounded=0;" edge="1" parent="1">
          <mxGeometry width="50" height="50" relative="1" as="geometry">
            <mxPoint x="180" y="-43" as="sourcePoint" />
            <mxPoint x="290" y="-43" as="targetPoint" />
          </mxGeometry>
        </mxCell>
        <mxCell id="EPZueAxWYd-J33KAulZX-217" value="" style="endArrow=block;html=1;strokeWidth=2;endFill=1;rounded=0;" edge="1" parent="1">
          <mxGeometry width="50" height="50" relative="1" as="geometry">
            <mxPoint x="180" y="-123" as="sourcePoint" />
            <mxPoint x="290" y="-123" as="targetPoint" />
          </mxGeometry>
        </mxCell>
        <mxCell id="EPZueAxWYd-J33KAulZX-218" value="&lt;font size=&quot;1&quot; style=&quot;&quot;&gt;&lt;b style=&quot;font-size: 18px;&quot;&gt;CLK_I&lt;/b&gt;&lt;/font&gt;" style="text;html=1;strokeColor=none;fillColor=none;align=center;verticalAlign=middle;whiteSpace=wrap;rounded=0;fontSize=16;" vertex="1" parent="1">
          <mxGeometry x="190" y="-163" width="70" height="30" as="geometry" />
        </mxCell>
        <mxCell id="EPZueAxWYd-J33KAulZX-219" value="&lt;font size=&quot;1&quot; style=&quot;&quot;&gt;&lt;b style=&quot;font-size: 18px;&quot;&gt;EN_I&lt;/b&gt;&lt;/font&gt;" style="text;html=1;strokeColor=none;fillColor=none;align=center;verticalAlign=middle;whiteSpace=wrap;rounded=0;fontSize=16;" vertex="1" parent="1">
          <mxGeometry x="190" y="-83" width="70" height="30" as="geometry" />
        </mxCell>
        <mxCell id="EPZueAxWYd-J33KAulZX-220" value="&lt;font size=&quot;1&quot; style=&quot;&quot;&gt;&lt;b style=&quot;font-size: 18px;&quot;&gt;DONE_O&lt;/b&gt;&lt;/font&gt;" style="text;html=1;strokeColor=none;fillColor=none;align=center;verticalAlign=middle;whiteSpace=wrap;rounded=0;fontSize=16;" vertex="1" parent="1">
          <mxGeometry x="630" y="-203" width="70" height="30" as="geometry" />
        </mxCell>
        <mxCell id="EPZueAxWYd-J33KAulZX-221" value="" style="endArrow=block;html=1;strokeWidth=2;endFill=1;rounded=0;" edge="1" parent="1">
          <mxGeometry width="50" height="50" relative="1" as="geometry">
            <mxPoint x="610" y="-163" as="sourcePoint" />
            <mxPoint x="720" y="-163" as="targetPoint" />
          </mxGeometry>
        </mxCell>
        <mxCell id="EPZueAxWYd-J33KAulZX-222" value="" style="triangle;whiteSpace=wrap;html=1;strokeWidth=4;" vertex="1" parent="1">
          <mxGeometry x="290" y="-133" width="20" height="25" as="geometry" />
        </mxCell>
        <mxCell id="EPZueAxWYd-J33KAulZX-223" value="" style="endArrow=block;html=1;strokeWidth=2;endFill=1;rounded=0;" edge="1" parent="1">
          <mxGeometry width="50" height="50" relative="1" as="geometry">
            <mxPoint x="150" y="37" as="sourcePoint" />
            <mxPoint x="290" y="37" as="targetPoint" />
          </mxGeometry>
        </mxCell>
        <mxCell id="EPZueAxWYd-J33KAulZX-224" value="&lt;font size=&quot;1&quot; style=&quot;&quot;&gt;&lt;b style=&quot;font-size: 18px;&quot;&gt;PDM_M_DATA_I&lt;br&gt;&lt;/b&gt;&lt;/font&gt;" style="text;html=1;strokeColor=none;fillColor=none;align=center;verticalAlign=middle;whiteSpace=wrap;rounded=0;fontSize=16;" vertex="1" parent="1">
          <mxGeometry x="140" y="-3" width="140" height="30" as="geometry" />
        </mxCell>
        <mxCell id="EPZueAxWYd-J33KAulZX-225" value="" style="endArrow=block;html=1;strokeWidth=2;endFill=1;rounded=0;" edge="1" parent="1">
          <mxGeometry width="50" height="50" relative="1" as="geometry">
            <mxPoint x="610" y="-83" as="sourcePoint" />
            <mxPoint x="750" y="-83" as="targetPoint" />
          </mxGeometry>
        </mxCell>
        <mxCell id="EPZueAxWYd-J33KAulZX-226" value="&lt;font size=&quot;1&quot; style=&quot;&quot;&gt;&lt;b style=&quot;font-size: 18px;&quot;&gt;PDM_M_CLK_O&lt;br&gt;&lt;/b&gt;&lt;/font&gt;" style="text;html=1;strokeColor=none;fillColor=none;align=center;verticalAlign=middle;whiteSpace=wrap;rounded=0;fontSize=16;" vertex="1" parent="1">
          <mxGeometry x="620" y="-123" width="140" height="30" as="geometry" />
        </mxCell>
        <mxCell id="EPZueAxWYd-J33KAulZX-227" value="" style="endArrow=block;html=1;strokeWidth=2;endFill=1;rounded=0;" edge="1" parent="1">
          <mxGeometry width="50" height="50" relative="1" as="geometry">
            <mxPoint x="610" y="-2" as="sourcePoint" />
            <mxPoint x="750" y="-2" as="targetPoint" />
          </mxGeometry>
        </mxCell>
        <mxCell id="EPZueAxWYd-J33KAulZX-228" value="&lt;font size=&quot;1&quot; style=&quot;&quot;&gt;&lt;b style=&quot;font-size: 18px;&quot;&gt;PDM_LRSEL_O&lt;br&gt;&lt;/b&gt;&lt;/font&gt;" style="text;html=1;strokeColor=none;fillColor=none;align=center;verticalAlign=middle;whiteSpace=wrap;rounded=0;fontSize=16;" vertex="1" parent="1">
          <mxGeometry x="620" y="-42" width="140" height="30" as="geometry" />
        </mxCell>
        <mxCell id="EPZueAxWYd-J33KAulZX-229" value="" style="endArrow=block;html=1;strokeWidth=6;endFill=1;rounded=0;" edge="1" parent="1">
          <mxGeometry width="50" height="50" relative="1" as="geometry">
            <mxPoint x="610" y="79" as="sourcePoint" />
            <mxPoint x="770" y="78" as="targetPoint" />
          </mxGeometry>
        </mxCell>
        <mxCell id="EPZueAxWYd-J33KAulZX-230" value="&lt;font size=&quot;1&quot; style=&quot;&quot;&gt;&lt;b style=&quot;font-size: 18px;&quot;&gt;DATA_O&lt;/b&gt;&lt;/font&gt;" style="text;html=1;strokeColor=none;fillColor=none;align=center;verticalAlign=middle;whiteSpace=wrap;rounded=0;fontSize=16;" vertex="1" parent="1">
          <mxGeometry x="640" y="47" width="70" height="30" as="geometry" />
        </mxCell>
        <mxCell id="EPZueAxWYd-J33KAulZX-231" value="&lt;b style=&quot;&quot;&gt;&lt;sub style=&quot;&quot;&gt;&lt;font style=&quot;font-size: 15px;&quot;&gt;16&lt;/font&gt;&lt;/sub&gt;&lt;/b&gt;" style="text;html=1;strokeColor=none;fillColor=none;align=center;verticalAlign=middle;whiteSpace=wrap;rounded=0;fontSize=16;" vertex="1" parent="1">
          <mxGeometry x="730" y="47" width="20" height="22" as="geometry" />
        </mxCell>
        <mxCell id="EPZueAxWYd-J33KAulZX-232" value="" style="endArrow=none;html=1;rounded=0;strokeWidth=3;" edge="1" parent="1">
          <mxGeometry width="50" height="50" relative="1" as="geometry">
            <mxPoint x="720" y="90" as="sourcePoint" />
            <mxPoint x="730" y="70" as="targetPoint" />
          </mxGeometry>
        </mxCell>
        <mxCell id="EPZueAxWYd-J33KAulZX-233" value="&lt;font size=&quot;1&quot; style=&quot;&quot;&gt;&lt;b style=&quot;font-size: 25px;&quot;&gt;DEBOUNCER&lt;/b&gt;&lt;/font&gt;" style="rounded=0;whiteSpace=wrap;html=1;strokeWidth=4;" vertex="1" parent="1">
          <mxGeometry x="-520" y="1020" width="320" height="240" as="geometry" />
        </mxCell>
        <mxCell id="EPZueAxWYd-J33KAulZX-234" value="" style="endArrow=block;html=1;strokeWidth=2;endFill=1;rounded=0;" edge="1" parent="1">
          <mxGeometry width="50" height="50" relative="1" as="geometry">
            <mxPoint x="-630" y="1180" as="sourcePoint" />
            <mxPoint x="-520" y="1180" as="targetPoint" />
          </mxGeometry>
        </mxCell>
        <mxCell id="EPZueAxWYd-J33KAulZX-235" value="" style="endArrow=block;html=1;strokeWidth=2;endFill=1;rounded=0;" edge="1" parent="1">
          <mxGeometry width="50" height="50" relative="1" as="geometry">
            <mxPoint x="-630" y="1100" as="sourcePoint" />
            <mxPoint x="-520" y="1100" as="targetPoint" />
          </mxGeometry>
        </mxCell>
        <mxCell id="EPZueAxWYd-J33KAulZX-236" value="&lt;font size=&quot;1&quot; style=&quot;&quot;&gt;&lt;b style=&quot;font-size: 18px;&quot;&gt;CLK_I&lt;/b&gt;&lt;/font&gt;" style="text;html=1;strokeColor=none;fillColor=none;align=center;verticalAlign=middle;whiteSpace=wrap;rounded=0;fontSize=16;" vertex="1" parent="1">
          <mxGeometry x="-620" y="1060" width="70" height="30" as="geometry" />
        </mxCell>
        <mxCell id="EPZueAxWYd-J33KAulZX-237" value="&lt;font size=&quot;1&quot; style=&quot;&quot;&gt;&lt;b style=&quot;font-size: 18px;&quot;&gt;SIG_I&lt;/b&gt;&lt;/font&gt;" style="text;html=1;strokeColor=none;fillColor=none;align=center;verticalAlign=middle;whiteSpace=wrap;rounded=0;fontSize=16;" vertex="1" parent="1">
          <mxGeometry x="-620" y="1140" width="70" height="30" as="geometry" />
        </mxCell>
        <mxCell id="EPZueAxWYd-J33KAulZX-238" value="&lt;font size=&quot;1&quot; style=&quot;&quot;&gt;&lt;b style=&quot;font-size: 18px;&quot;&gt;PLS_O&lt;/b&gt;&lt;/font&gt;" style="text;html=1;strokeColor=none;fillColor=none;align=center;verticalAlign=middle;whiteSpace=wrap;rounded=0;fontSize=16;" vertex="1" parent="1">
          <mxGeometry x="-180" y="1100" width="70" height="30" as="geometry" />
        </mxCell>
        <mxCell id="EPZueAxWYd-J33KAulZX-239" value="" style="endArrow=block;html=1;strokeWidth=2;endFill=1;rounded=0;" edge="1" parent="1">
          <mxGeometry width="50" height="50" relative="1" as="geometry">
            <mxPoint x="-200" y="1140" as="sourcePoint" />
            <mxPoint x="-90" y="1140" as="targetPoint" />
          </mxGeometry>
        </mxCell>
        <mxCell id="EPZueAxWYd-J33KAulZX-240" value="" style="triangle;whiteSpace=wrap;html=1;strokeWidth=4;" vertex="1" parent="1">
          <mxGeometry x="-520" y="1090" width="20" height="25" as="geometry" />
        </mxCell>
      </root>
    </mxGraphModel>
  </diagram>
</mxfile>
